<svg width="193" height="192" viewBox="0 0 193 192" fill="none" xmlns="http://www.w3.org/2000/svg">
<path opacity="0.2" d="M5.47024 66.4296L91.8668 115.4C93.3261 116.226 94.9815 116.661 96.6666 116.661C98.3517 116.661 100.007 116.226 101.466 115.4L187.863 66.4296C189.314 65.6079 190.52 64.428 191.362 63.0072C192.204 61.5864 192.653 59.9741 192.663 58.3307C192.67 56.6713 192.229 55.0396 191.386 53.6008C190.543 52.162 189.328 50.9673 187.863 50.1376L101.466 1.26168C100.007 0.43514 98.3517 0 96.6666 0C94.9815 0 93.3261 0.43514 91.8668 1.26168L5.47024 50.1376C4.0053 50.9673 2.78985 52.162 1.94697 53.6008C1.1041 55.0396 0.663719 56.6713 0.670434 58.3307C0.680546 59.9741 1.1289 61.5864 1.97094 63.0072C2.81298 64.428 4.01938 65.6079 5.47024 66.4296ZM96.6666 20.6614L163.864 58.3307L96.6666 96L29.4693 58.3307L96.6666 20.6614ZM178.263 88.1836L96.6666 133.669L15.0699 87.8069C13.9742 87.1842 12.7638 86.7804 11.5084 86.6186C10.253 86.4567 8.97733 86.5402 7.75492 86.864C6.5325 87.1879 5.38747 87.7458 4.38578 88.5057C3.38409 89.2655 2.54553 90.2122 1.91839 91.2913C0.66686 93.4537 0.337916 96.0139 1.00333 98.4133C1.66875 100.813 3.27451 102.857 5.47024 104.099L91.8668 153.069C93.3261 153.896 94.9815 154.331 96.6666 154.331C98.3517 154.331 100.007 153.896 101.466 153.069L187.863 104.099C190.059 102.857 191.665 100.813 192.33 98.4133C192.995 96.0139 192.666 93.4537 191.415 91.2913C190.788 90.2122 189.949 89.2655 188.947 88.5057C187.946 87.7458 186.801 87.1879 185.578 86.864C184.356 86.5402 183.08 86.4567 181.825 86.6186C180.569 86.7804 179.359 87.1842 178.263 87.8069V88.1836ZM178.263 125.853L96.6666 171.339L15.0699 125.476C13.9742 124.854 12.7638 124.45 11.5084 124.288C10.253 124.126 8.97733 124.209 7.75492 124.533C6.5325 124.857 5.38747 125.415 4.38578 126.175C3.38409 126.935 2.54553 127.882 1.91839 128.961C0.66686 131.123 0.337916 133.683 1.00333 136.083C1.66875 138.482 3.27451 140.526 5.47024 141.768L91.8668 190.738C93.3261 191.565 94.9815 192 96.6666 192C98.3517 192 100.007 191.565 101.466 190.738L187.863 141.768C190.059 140.526 191.665 138.482 192.33 136.083C192.995 133.683 192.666 131.123 191.415 128.961C190.788 127.882 189.949 126.935 188.947 126.175C187.946 125.415 186.801 124.857 185.578 124.533C184.356 124.209 183.08 124.126 181.825 124.288C180.569 124.45 179.359 124.854 178.263 125.476V125.853Z" fill="url(#paint0_linear_1_239)"/>
<defs>
<linearGradient id="paint0_linear_1_239" x1="96.6666" y1="0" x2="96.6666" y2="225.5" gradientUnits="userSpaceOnUse">
<stop stop-color="#5867DD"/>
<stop offset="1" stop-color="#5867DD" stop-opacity="0"/>
</linearGradient>
</defs>
</svg>
