<svg width="193" height="192" viewBox="0 0 193 192" fill="none" xmlns="http://www.w3.org/2000/svg">
<path opacity="0.2" d="M67.5333 96C54.8029 96 42.5939 90.9429 33.5921 81.9411C24.5904 72.9394 19.5333 60.7304 19.5333 48C19.5333 35.2696 24.5904 23.0606 33.5921 14.0589C42.5939 5.05713 54.8029 0 67.5333 0C80.2636 0 92.4726 5.05713 101.474 14.0589C110.476 23.0606 115.533 35.2696 115.533 48C115.533 60.7304 110.476 72.9394 101.474 81.9411C92.4726 90.9429 80.2636 96 67.5333 96ZM67.5333 76.8C71.3153 76.8 75.0604 76.0551 78.5545 74.6077C82.0487 73.1604 85.2236 71.039 87.8979 68.3647C90.5723 65.6904 92.6937 62.5155 94.141 59.0213C95.5883 55.5271 96.3333 51.7821 96.3333 48C96.3333 44.2179 95.5883 40.4729 94.141 36.9787C92.6937 33.4845 90.5723 30.3097 87.8979 27.6353C85.2236 24.961 82.0487 22.8396 78.5545 21.3923C75.0604 19.9449 71.3153 19.2 67.5333 19.2C59.895 19.2 52.5696 22.2343 47.1686 27.6353C41.7675 33.0364 38.7333 40.3618 38.7333 48C38.7333 55.6382 41.7675 62.9636 47.1686 68.3647C52.5696 73.7657 59.895 76.8 67.5333 76.8ZM134.733 182.4C134.733 184.946 133.722 187.388 131.921 189.188C130.121 190.989 127.679 192 125.133 192C122.587 192 120.145 190.989 118.345 189.188C116.545 187.388 115.533 184.946 115.533 182.4V163.2C115.533 155.562 112.499 148.236 107.098 142.835C101.697 137.434 94.3715 134.4 86.7333 134.4H48.3333C40.695 134.4 33.3696 137.434 27.9686 142.835C22.5675 148.236 19.5333 155.562 19.5333 163.2V182.4C19.5333 184.946 18.5218 187.388 16.7215 189.188C14.9211 190.989 12.4793 192 9.93325 192C7.38717 192 4.94538 190.989 3.14503 189.188C1.34468 187.388 0.333252 184.946 0.333252 182.4V163.2C0.333252 150.47 5.39038 138.261 14.3921 129.259C23.3939 120.257 35.6029 115.2 48.3333 115.2H86.7333C99.4636 115.2 111.673 120.257 120.674 129.259C129.676 138.261 134.733 150.47 134.733 163.2V182.4ZM144.333 134.4C141.787 134.4 139.345 133.389 137.545 131.588C135.745 129.788 134.733 127.346 134.733 124.8C134.733 122.254 135.745 119.812 137.545 118.012C139.345 116.211 141.787 115.2 144.333 115.2C157.064 115.2 169.273 120.257 178.274 129.259C187.276 138.261 192.333 150.47 192.333 163.2V182.4C192.333 184.946 191.322 187.388 189.521 189.188C187.721 190.989 185.279 192 182.733 192C180.187 192 177.745 190.989 175.945 189.188C174.145 187.388 173.133 184.946 173.133 182.4V163.2C173.133 155.562 170.099 148.236 164.698 142.835C159.297 137.434 151.971 134.4 144.333 134.4ZM125.133 96C122.587 96 120.145 94.9886 118.345 93.1882C116.545 91.3879 115.533 88.9461 115.533 86.4C115.533 83.8539 116.545 81.4121 118.345 79.6118C120.145 77.8114 122.587 76.8 125.133 76.8C132.771 76.8 140.097 73.7657 145.498 68.3647C150.899 62.9636 153.933 55.6382 153.933 48C153.933 40.3618 150.899 33.0364 145.498 27.6353C140.097 22.2343 132.771 19.2 125.133 19.2C122.587 19.2 120.145 18.1886 118.345 16.3882C116.545 14.5879 115.533 12.1461 115.533 9.6C115.533 7.05392 116.545 4.61212 118.345 2.81177C120.145 1.01143 122.587 0 125.133 0C137.864 0 150.073 5.05713 159.074 14.0589C168.076 23.0606 173.133 35.2696 173.133 48C173.133 60.7304 168.076 72.9394 159.074 81.9411C150.073 90.9429 137.864 96 125.133 96Z" fill="url(#paint0_linear_1_245)"/>
<defs>
<linearGradient id="paint0_linear_1_245" x1="96.3333" y1="0" x2="96.3333" y2="192" gradientUnits="userSpaceOnUse">
<stop stop-color="#5867DD"/>
<stop offset="1" stop-color="#5867DD" stop-opacity="0"/>
</linearGradient>
</defs>
</svg>
