<svg width="193" height="167" viewBox="0 0 193 167" fill="none" xmlns="http://www.w3.org/2000/svg">
<path opacity="0.2" fill-rule="evenodd" clip-rule="evenodd" d="M99.8419 0.843244C97.8744 -0.281081 95.4589 -0.281081 93.4913 0.843244L3.89134 52.0432C1.89726 53.1827 0.666626 55.3033 0.666626 57.6C0.666626 59.8967 1.89726 62.0173 3.89134 63.1568L32.6666 79.5998V128C32.6666 130.324 33.9267 132.466 35.9585 133.595L93.4566 165.538C94.346 166.055 95.3713 166.363 96.4659 166.397C96.5328 166.399 96.5997 166.4 96.6666 166.4C96.7605 166.4 96.8545 166.398 96.9483 166.394C98.0125 166.348 99.0092 166.042 99.8767 165.538L157.375 133.595C159.407 132.466 160.667 130.324 160.667 128V79.5998L179.867 68.6284V128C179.867 131.535 182.732 134.4 186.267 134.4C189.801 134.4 192.667 131.535 192.667 128V57.6C192.667 55.6263 191.773 53.8613 190.369 52.6873C190.049 52.42 189.703 52.1834 189.335 51.9819L99.8419 0.843244ZM103.067 149.123L147.867 124.234V86.9141L103.067 112.514V149.123ZM90.2666 112.514L45.4666 86.9141V124.234L90.2666 149.123V112.514ZM96.6666 101.429L19.9662 57.6L96.6666 13.7712L173.367 57.6L96.6666 101.429Z" fill="url(#paint0_linear_1_258)"/>
<defs>
<linearGradient id="paint0_linear_1_258" x1="96.6666" y1="0" x2="96.6666" y2="166" gradientUnits="userSpaceOnUse">
<stop stop-color="#5867DD"/>
<stop offset="1" stop-color="#5867DD" stop-opacity="0"/>
</linearGradient>
</defs>
</svg>
