<svg width="193" height="191" viewBox="0 0 193 191" fill="none" xmlns="http://www.w3.org/2000/svg">
<path opacity="0.2" fill-rule="evenodd" clip-rule="evenodd" d="M97.1665 153.943L38.7333 190.545V153.943H19.5333C8.92938 153.943 0.333252 145.328 0.333252 134.7V19.2429C0.333252 8.61533 8.92938 0 19.5333 0H173.133C183.737 0 192.333 8.61533 192.333 19.2429V134.7C192.333 145.328 183.737 153.943 173.133 153.943H97.1665ZM57.9333 155.827L91.66 134.7H173.133V19.2429H19.5333V134.7H57.9333V155.827Z" fill="url(#paint0_linear_1_318)"/>
<path opacity="0.2" fill-rule="evenodd" clip-rule="evenodd" d="M125.333 77C125.333 93.0163 112.35 106 96.3333 106C80.317 106 67.3333 93.0163 67.3333 77C67.3333 60.9837 80.317 48 96.3333 48C112.35 48 125.333 60.9837 125.333 77ZM133.333 77C133.333 97.4345 116.768 114 96.3333 114C75.8987 114 59.3333 97.4345 59.3333 77C59.3333 56.5655 75.8987 40 96.3333 40C116.768 40 133.333 56.5655 133.333 77ZM93.3333 57H99.5941V77.4545H111.333V84H99.5941H93.3333V77.4545V57Z" fill="url(#paint1_linear_1_318)"/>
<defs>
<linearGradient id="paint0_linear_1_318" x1="96.3333" y1="0" x2="96.3333" y2="191" gradientUnits="userSpaceOnUse">
<stop stop-color="#5867DD"/>
<stop offset="1" stop-color="#5867DD" stop-opacity="0"/>
</linearGradient>
<linearGradient id="paint1_linear_1_318" x1="96.3333" y1="40" x2="96.3333" y2="148.088" gradientUnits="userSpaceOnUse">
<stop stop-color="#5867DD"/>
<stop offset="1" stop-color="#5867DD" stop-opacity="0"/>
</linearGradient>
</defs>
</svg>
