<svg width="192" height="173" viewBox="0 0 192 173" fill="none" xmlns="http://www.w3.org/2000/svg">
<path opacity="0.2" d="M169.6 121.821V83.2H99.1999V50.9792C111.808 49.3952 121.6 38.6304 121.6 25.6C121.6 11.4848 110.115 0 95.9999 0C81.8847 0 70.3999 11.4848 70.3999 25.6C70.3999 38.6304 80.1919 49.3952 92.7999 50.9792V83.2H22.3999V121.821C9.79188 123.405 -0.00012207 134.17 -0.00012207 147.2C-0.00012207 161.315 11.4847 172.8 25.5999 172.8C39.7151 172.8 51.1999 161.315 51.1999 147.2C51.1999 134.17 41.4079 123.405 28.7999 121.821V89.6H92.7999V121.821C80.1919 123.405 70.3999 134.17 70.3999 147.2C70.3999 161.315 81.8847 172.8 95.9999 172.8C110.115 172.8 121.6 161.315 121.6 147.2C121.6 134.17 111.808 123.405 99.1999 121.821V89.6H163.2V121.821C150.592 123.405 140.8 134.17 140.8 147.2C140.8 161.315 152.285 172.8 166.4 172.8C180.515 172.8 192 161.315 192 147.2C192 134.17 182.208 123.405 169.6 121.821ZM76.7999 25.6C76.7999 15.0112 85.4111 6.4 95.9999 6.4C106.589 6.4 115.2 15.0112 115.2 25.6C115.2 36.1888 106.589 44.8 95.9999 44.8C85.4111 44.8 76.7999 36.1888 76.7999 25.6ZM44.7999 147.2C44.7999 157.789 36.1887 166.4 25.5999 166.4C15.0111 166.4 6.39988 157.789 6.39988 147.2C6.39988 136.611 15.0111 128 25.5999 128C36.1887 128 44.7999 136.611 44.7999 147.2ZM115.2 147.2C115.2 157.789 106.589 166.4 95.9999 166.4C85.4111 166.4 76.7999 157.789 76.7999 147.2C76.7999 136.611 85.4111 128 95.9999 128C106.589 128 115.2 136.611 115.2 147.2ZM166.4 166.4C155.811 166.4 147.2 157.789 147.2 147.2C147.2 136.611 155.811 128 166.4 128C176.989 128 185.6 136.611 185.6 147.2C185.6 157.789 176.989 166.4 166.4 166.4Z" fill="url(#paint0_linear_1_251)"/>
<defs>
<linearGradient id="paint0_linear_1_251" x1="95.9999" y1="0" x2="95.9999" y2="190" gradientUnits="userSpaceOnUse">
<stop stop-color="#5867DD"/>
<stop offset="1" stop-color="#5867DD" stop-opacity="0"/>
</linearGradient>
</defs>
</svg>
