<svg width="195" height="213" viewBox="0 0 195 213" fill="none" xmlns="http://www.w3.org/2000/svg">
<path opacity="0.2" fill-rule="evenodd" clip-rule="evenodd" d="M57.5862 1.32968C58.5103 0.474833 59.7228 0 60.9816 0H63.5104H157.586C167.357 0 175.29 7.98516 175.312 17.6861L175.312 17.7254V101.985C175.312 104.747 173.073 106.985 170.312 106.985C167.55 106.985 165.312 104.747 165.312 101.985V17.7589L165.312 17.7258C165.312 13.5075 161.826 10 157.586 10H68.5104V51.9365L68.5107 51.9764L68.5108 52.0001C68.5108 58.4802 63.2092 63.8124 56.7048 63.8124L56.6923 63.8124H10.8764V194.912L10.8761 194.961C10.9027 199.179 14.4012 202.644 18.6081 202.644L18.6331 202.644H157.514C157.538 202.644 157.562 202.644 157.586 202.644C161.803 202.644 165.312 199.134 165.312 194.912C165.312 192.15 167.55 189.912 170.312 189.912C173.073 189.912 175.312 192.15 175.312 194.912C175.312 204.623 167.378 212.597 157.671 212.643C157.652 212.644 157.634 212.644 157.616 212.644L157.586 212.644H18.6081L18.5785 212.644C8.86515 212.628 0.875977 204.685 0.875977 194.912C0.875977 194.891 0.876105 194.871 0.876361 194.85V58.8124V55.9777C0.876361 54.5841 1.45797 53.2537 2.48096 52.3074L57.5862 1.32968ZM15.5799 53.8124H56.7046L56.7109 53.8124C57.6614 53.8089 58.4924 52.9915 58.5105 52.032L58.5104 52.0001V14.0975L15.5799 53.8124ZM97.9458 56.1293V31.596L142.883 31.3957V56.1293H97.9458ZM87.9458 57.8262V57.8258V29.9082C87.9458 25.7976 91.0922 21.6657 95.875 21.6058C95.9026 21.6052 95.9302 21.6049 95.9579 21.6047L146.163 21.381C148.162 21.3721 149.893 22.5374 150.7 24.2291C152.09 25.7831 152.883 27.8461 152.883 29.9077L152.883 29.9491V57.8258L152.883 57.8618L152.882 57.8994C152.845 62.031 149.67 66.0704 144.956 66.1282C144.922 66.1289 144.888 66.1293 144.854 66.1293H95.9982L95.9805 66.1293C91.1562 66.1293 87.9458 62.0051 87.9458 57.8262ZM20.9825 93.3428C20.9825 90.5814 23.2211 88.3428 25.9825 88.3428H148.164C150.925 88.3428 153.164 90.5814 153.164 93.3428C153.164 96.1043 150.925 98.3428 148.164 98.3428H25.9825C23.2211 98.3428 20.9825 96.1043 20.9825 93.3428ZM25.9825 130.698C23.2211 130.698 20.9825 132.936 20.9825 135.698C20.9825 138.459 23.2211 140.698 25.9825 140.698H110.005C112.767 140.698 115.005 138.459 115.005 135.698C115.005 132.936 112.767 130.698 110.005 130.698H25.9825ZM20.9825 178.065C20.9825 175.303 23.2211 173.065 25.9825 173.065H116.012C118.774 173.065 121.012 175.303 121.012 178.065C121.012 180.826 118.774 183.065 116.012 183.065H25.9825C23.2211 183.065 20.9825 180.826 20.9825 178.065ZM135.761 147.611C135.761 134.01 146.782 122.995 160.39 122.995C164.906 122.995 169.125 124.208 172.77 126.327C175.157 127.714 178.217 126.904 179.605 124.517C180.993 122.129 180.182 119.069 177.795 117.681C172.672 114.704 166.726 112.995 160.39 112.995C141.265 112.995 125.761 128.481 125.761 147.611C125.761 166.726 141.262 182.234 160.39 182.234C179.508 182.234 195 166.724 195 147.611C195 144.85 192.761 142.611 190 142.611C187.238 142.611 185 144.85 185 147.611C185 161.206 173.979 172.234 160.39 172.234C146.785 172.234 135.761 161.204 135.761 147.611ZM143.698 141.286C145.564 139.25 148.726 139.112 150.762 140.978L162.123 151.391L186.312 124.972C188.177 122.935 191.34 122.796 193.376 124.661C195.413 126.525 195.552 129.688 193.688 131.725L166.138 161.815C166.131 161.822 166.125 161.829 166.118 161.836C164.253 163.871 161.091 164.009 159.056 162.145C159.047 162.138 159.039 162.13 159.03 162.122L144.005 148.35C141.969 146.484 141.832 143.321 143.698 141.286Z" fill="url(#paint0_linear_1_279)"/>
<defs>
<linearGradient id="paint0_linear_1_279" x1="97.9379" y1="0" x2="97.9379" y2="216.5" gradientUnits="userSpaceOnUse">
<stop stop-color="#5867DD"/>
<stop offset="1" stop-color="#5867DD" stop-opacity="0"/>
</linearGradient>
</defs>
</svg>
