<?xml version="1.0" standalone="no"?>
<!DOCTYPE svg PUBLIC "-//W3C//DTD SVG 20010904//EN"
 "http://www.w3.org/TR/2001/REC-SVG-20010904/DTD/svg10.dtd">
<svg version="1.0" xmlns="http://www.w3.org/2000/svg"
 width="723.000000pt" height="650.000000pt" viewBox="0 0 723.000000 650.000000"
 preserveAspectRatio="xMidYMid meet">

<g transform="translate(0.000000,650.000000) scale(0.100000,-0.100000)"
fill="#335DFF" stroke="none">
<path fill="#335DFF" d="M4096 6181 c-8 -12 3 -61 17 -80 33 -40 104 -32 125 15 14 30 30 31
34 2 4 -32 51 -53 89 -39 22 8 29 7 29 -3 0 -14 -45 -59 -77 -75 -13 -6 -23
-18 -23 -26 0 -12 -21 -15 -114 -15 -83 0 -117 -4 -125 -13 -8 -10 -4 -48 16
-147 l27 -133 258 7 c169 4 266 11 278 18 32 20 40 55 40 171 l-1 112 -94 97
c-65 66 -104 98 -123 101 -15 2 -35 7 -44 11 -10 5 -41 5 -70 2 -65 -8 -95 -8
-174 0 -38 3 -64 2 -68 -5z m60 -25 c17 -18 18 -30 2 -19 -7 4 -17 8 -22 8 -5
0 -11 6 -13 13 -6 16 15 15 33 -2z m154 -1 c0 -8 5 -15 12 -15 6 0 9 -2 7 -5
-3 -2 -15 -2 -27 2 -25 6 -30 33 -7 33 8 0 15 -7 15 -15z"/>
<path fill="#335DFF" d="M2980 5800 c-11 -11 -20 -30 -20 -42 0 -15 -11 -29 -30 -40 -34 -19
-60 -71 -60 -118 0 -29 33 -124 50 -143 4 -5 7 8 6 29 -1 32 3 39 24 45 l25 7
-27 1 c-33 1 -33 1 -7 46 l21 35 22 -23 c28 -30 89 -51 126 -44 22 5 36 -1 64
-25 20 -17 36 -36 36 -43 0 -21 -36 -45 -67 -45 -38 0 -57 21 -51 57 3 25 1
28 -27 29 -16 1 -41 4 -55 8 l-25 8 25 -14 c54 -29 32 -92 -31 -86 -21 2 -35
0 -33 -4 3 -5 20 -8 39 -8 35 0 65 21 65 45 0 28 21 25 31 -4 12 -35 42 -47
90 -37 l30 6 -21 -29 c-11 -16 -34 -35 -50 -43 -17 -7 -30 -21 -30 -30 0 -16
11 -18 84 -18 66 0 85 -3 90 -15 3 -9 -6 -67 -19 -130 -14 -63 -25 -119 -25
-125 0 -6 34 -10 85 -10 83 0 86 1 123 34 l37 34 3 117 4 116 -115 117 c-108
111 -115 120 -121 167 -7 53 -42 101 -82 111 -16 4 -23 16 -28 45 l-6 39 -65
0 c-52 0 -69 -4 -85 -20z"/>
<path fill="#335DFF" d="M5615 5686 c-16 -7 -43 -18 -59 -22 -67 -21 -81 -109 -45 -300 l22
-114 58 0 c52 0 59 2 59 20 0 11 -12 26 -29 35 -34 17 -71 61 -71 84 0 9 11
38 25 65 14 27 25 60 25 72 0 21 4 20 43 -20 46 -46 90 -67 80 -37 -13 33 34
-18 52 -59 23 -50 14 -83 -30 -110 -20 -13 -35 -30 -35 -41 0 -12 -7 -19 -19
-19 -11 0 -23 -5 -26 -10 -6 -9 7 -153 21 -237 l5 -33 74 0 c69 0 75 2 80 23
16 68 45 222 45 238 0 15 -7 19 -31 19 -22 0 -30 4 -26 14 73 190 64 354 -24
417 -41 29 -146 37 -194 15z m25 -39 c0 -9 16 -13 50 -14 66 -1 120 -36 133
-86 4 -14 -1 -12 -24 8 -56 46 -149 55 -207 18 -34 -21 -62 -73 -63 -118 0
-37 -1 -38 -10 -15 -15 37 -1 106 27 140 14 16 21 30 15 30 -6 0 -11 7 -11 16
0 12 7 15 24 12 15 -3 27 0 30 8 7 18 36 18 36 1z"/>
<path fill="#335DFF" d="M4565 5605 c-17 -16 -25 -35 -25 -60 0 -35 35 -85 60 -85 7 0 10
-249 10 -795 l0 -795 -515 0 -515 0 0 512 0 512 30 25 c43 37 49 79 15 119
-38 45 -92 45 -129 1 -37 -43 -33 -73 14 -121 l40 -41 0 -519 0 -518 38 0 c20
-1 259 0 530 0 l492 1 0 -156 c0 -148 1 -155 20 -155 20 0 20 7 20 961 l0 961
30 28 c37 34 40 84 9 124 -28 36 -89 37 -124 1z m107 -22 c37 -33 10 -93 -43
-93 -34 0 -59 23 -59 55 0 49 63 73 102 38z m-1072 -553 c11 -11 20 -30 20
-42 -1 -72 -91 -83 -115 -14 -8 25 -6 31 18 52 34 29 51 30 77 4z"/>
<path fill="#335DFF" d="M3118 5533 c7 -3 16 -2 19 1 4 3 -2 6 -13 5 -11 0 -14 -3 -6 -6z"/>
<path fill="#335DFF" d="M1420 5490 c0 -5 -18 -10 -40 -10 -21 0 -49 -4 -62 -9 -13 -6 -49
-13 -80 -16 -42 -5 -56 -10 -52 -20 4 -10 0 -12 -15 -8 -12 3 -24 9 -27 14
-11 18 -22 8 -17 -13 18 -74 116 -87 138 -18 8 27 21 25 29 -3 5 -23 42 -47
70 -47 7 0 26 10 41 22 l28 22 -6 -34 c-9 -43 -34 -79 -75 -105 -53 -34 -41
-45 48 -45 110 0 105 16 75 -242 l-6 -48 56 0 c67 0 114 18 143 55 20 25 22
40 22 137 l0 110 -127 134 c-123 128 -143 146 -143 124z m-87 -49 c-2 -6 2
-11 7 -11 6 0 10 -5 10 -10 0 -6 -9 -5 -22 2 -13 7 -25 14 -27 15 -1 1 0 7 4
13 8 14 31 7 28 -9z"/>
<path fill="#335DFF" d="M1334 4896 c-61 -27 -68 -108 -13 -148 l29 -22 0 -1248 0 -1248 540
0 c533 0 540 0 540 20 0 20 -7 20 -525 20 l-525 0 0 285 0 285 240 0 240 0 0
461 0 460 35 33 c19 19 35 43 35 55 0 30 -26 77 -45 85 -96 36 -169 -75 -95
-144 l30 -28 0 -441 0 -441 -220 0 -220 0 0 915 0 914 40 40 c57 56 53 113
-10 146 -35 18 -36 18 -76 1z m84 -44 c29 -37 0 -92 -49 -92 -29 0 -59 31 -59
61 0 10 12 27 27 38 28 23 59 20 81 -7z m460 -948 c35 -24 28 -84 -12 -103
-25 -12 -31 -11 -55 6 -37 28 -39 65 -5 92 32 25 42 26 72 5z"/>
<path fill="#335DFF" d="M5939 4861 c-16 -17 -29 -40 -29 -54 0 -29 44 -87 66 -87 12 0 14
-178 14 -1235 l0 -1235 -496 0 c-466 0 -495 -1 -492 -17 3 -17 31 -18 398 -21
217 -2 446 0 508 3 l112 7 0 1244 0 1244 32 29 c43 38 45 92 4 127 -38 33 -80
31 -117 -5z m103 -18 c10 -9 18 -27 18 -40 0 -28 -33 -63 -60 -63 -26 0 -60
34 -60 62 0 50 63 76 102 41z"/>
<path fill="#335DFF" d="M2065 4666 c-30 -31 -46 -56 -51 -83 -3 -21 -10 -43 -15 -49 -5 -6
-1 -33 9 -65 13 -41 23 -56 43 -63 40 -14 75 0 91 34 14 32 28 40 28 15 0 -24
38 -55 68 -55 15 1 37 9 49 19 25 21 49 107 34 125 -5 6 -12 26 -16 44 -4 19
-26 53 -49 78 -40 41 -46 44 -95 44 -48 0 -55 -3 -96 -44z m180 -138 l40 -12
-45 -7 c-25 -3 -39 -7 -32 -7 6 -1 12 -8 12 -16 0 -8 6 -17 13 -19 10 -4 10
-6 0 -6 -7 -1 -22 8 -33 19 -14 14 -40 21 -97 26 l-78 8 40 12 c52 16 130 17
180 2z m-181 -44 c4 -9 4 -19 1 -22 -3 -3 -5 0 -5 6 0 7 -5 11 -11 10 -6 -2
-14 3 -16 10 -3 6 2 12 10 12 8 0 18 -7 21 -16z"/>
<path fill="#335DFF" d="M441 4575 c-56 -17 -98 -59 -112 -109 -8 -30 -40 -71 -130 -165
l-119 -126 0 -108 c0 -122 12 -157 61 -183 37 -18 179 -32 179 -17 0 6 -9 56
-21 111 -11 56 -19 116 -17 134 l3 33 83 3 c91 3 102 14 50 47 -60 38 -101
127 -73 157 7 7 20 37 30 66 16 51 19 53 44 47 27 -8 93 -9 145 -3 29 3 30 1
45 -62 9 -36 21 -65 26 -65 6 0 11 33 13 73 l3 73 -48 49 c-55 57 -90 66 -162
45z"/>
<path fill="#335DFF" d="M6810 4572 c0 -5 -14 -9 -31 -9 -23 0 -42 -11 -75 -44 -50 -50 -61
-88 -49 -166 6 -43 8 -46 21 -29 7 10 16 38 19 61 11 67 16 71 73 56 40 -10
58 -10 91 0 25 7 45 9 50 3 5 -5 21 -40 36 -77 23 -58 25 -72 16 -100 -13 -36
-68 -97 -88 -97 -7 0 -13 -9 -13 -20 0 -18 7 -20 80 -20 64 0 82 -3 87 -16 3
-8 -6 -71 -19 -140 l-25 -124 76 0 c136 0 171 42 171 205 l0 97 -122 129 c-73
77 -125 141 -129 157 -7 35 -23 63 -46 84 -22 20 -123 61 -123 50z"/>
<path fill="#335DFF" d="M1954 4286 c-5 -13 2 -58 36 -212 l11 -52 160 -7 c88 -4 162 -5 165
-2 10 9 53 258 48 272 -9 22 -412 22 -420 1z"/>
<path fill="#335DFF" d="M499 3781 c-16 -16 -29 -39 -29 -51 0 -31 27 -78 50 -85 20 -6 20
-15 22 -908 l3 -902 943 -3 c937 -2 942 -2 942 18 0 20 -6 20 -925 20 l-925 0
0 884 0 885 21 6 c21 7 49 59 49 90 0 29 -55 75 -90 75 -22 0 -41 -9 -61 -29z
m107 -27 c37 -55 -25 -117 -80 -80 -15 9 -26 26 -26 39 0 63 73 92 106 41z"/>
<path fill="#335DFF" d="M6769 3785 c-41 -22 -54 -64 -35 -110 9 -20 25 -39 36 -42 20 -5 20
-12 20 -894 l0 -889 -892 1 c-804 0 -893 -1 -896 -15 -3 -14 85 -16 912 -16
l916 0 0 897 0 897 30 25 c43 36 50 88 19 124 -29 33 -75 42 -110 22z m81 -35
c39 -39 16 -100 -37 -100 -60 0 -83 63 -37 99 33 26 49 26 74 1z"/>
<path fill="#335DFF" d="M2332 3348 c3 -7 51 -166 108 -354 l102 -341 121 -7 c66 -3 583 -6
1148 -6 970 0 1028 1 1033 18 3 9 48 166 101 347 53 182 98 336 100 343 4 9
-272 12 -1356 12 -1085 0 -1360 -3 -1357 -12z"/>
<path fill="#335DFF" d="M2700 2170 l0 -40 50 0 50 0 0 40 0 40 -50 0 -50 0 0 -40z"/>
<path fill="#335DFF" d="M2830 2170 l0 -40 50 0 50 0 0 40 0 40 -50 0 -50 0 0 -40z"/>
<path fill="#335DFF" d="M2960 2170 l0 -40 50 0 50 0 0 40 0 40 -50 0 -50 0 0 -40z"/>
<path fill="#335DFF" d="M3090 2170 l0 -41 53 3 52 3 0 35 0 35 -52 3 -53 3 0 -41z"/>
<path fill="#335DFF" d="M3224 2196 c-3 -8 -4 -25 -2 -38 3 -20 9 -23 56 -26 l52 -3 0 40 0
41 -50 0 c-35 0 -52 -5 -56 -14z"/>
<path fill="#335DFF" d="M3350 2170 l0 -41 53 3 52 3 0 35 0 35 -52 3 -53 3 0 -41z"/>
<path fill="#335DFF" d="M3480 2170 l0 -40 50 0 50 0 0 40 0 40 -50 0 -50 0 0 -40z"/>
<path fill="#335DFF" d="M3610 2170 l0 -40 50 0 50 0 0 40 0 40 -50 0 -50 0 0 -40z"/>
<path fill="#335DFF" d="M3740 2170 l0 -40 50 0 50 0 0 40 0 40 -50 0 -50 0 0 -40z"/>
<path fill="#335DFF" d="M3870 2170 l0 -40 50 0 50 0 0 40 0 40 -50 0 -50 0 0 -40z"/>
<path fill="#335DFF" d="M4000 2170 l0 -40 50 0 50 0 0 40 0 40 -50 0 -50 0 0 -40z"/>
<path fill="#335DFF" d="M4130 2170 l0 -40 50 0 50 0 0 40 0 40 -50 0 -50 0 0 -40z"/>
<path fill="#335DFF" d="M4260 2170 l0 -40 50 0 50 0 0 40 0 40 -50 0 -50 0 0 -40z"/>
<path fill="#335DFF" d="M4390 2170 l0 -40 50 0 50 0 0 40 0 40 -50 0 -50 0 0 -40z"/>
<path fill="#335DFF" d="M4514 2196 c-3 -8 -4 -25 -2 -38 3 -21 8 -23 53 -23 l50 0 0 35 c0
35 0 35 -48 38 -35 2 -49 -1 -53 -12z"/>
<path fill="#335DFF" d="M4640 2170 l0 -40 50 0 50 0 0 40 0 40 -50 0 -50 0 0 -40z"/>
<path fill="#335DFF" d="M2700 2060 l0 -50 55 0 55 0 0 50 0 50 -55 0 -55 0 0 -50z"/>
<path fill="#335DFF" d="M2827 2103 c-4 -3 -7 -26 -7 -50 l0 -43 60 0 60 0 0 50 0 50 -53 0
c-30 0 -57 -3 -60 -7z"/>
<path fill="#335DFF" d="M2950 2060 l0 -50 55 0 55 0 0 50 0 50 -55 0 -55 0 0 -50z"/>
<path fill="#335DFF" d="M3070 2060 l0 -50 61 0 60 0 -3 48 -3 47 -57 3 -58 3 0 -51z"/>
<path fill="#335DFF" d="M3200 2060 l0 -50 55 0 55 0 0 50 0 50 -55 0 -55 0 0 -50z"/>
<path fill="#335DFF" d="M3320 2060 l0 -50 121 0 120 0 -3 48 -3 47 -117 2 -118 3 0 -50z"/>
<path fill="#335DFF" d="M3570 2060 l0 -50 55 0 55 0 0 50 0 50 -55 0 -55 0 0 -50z"/>
<path fill="#335DFF" d="M3690 2060 l0 -50 55 0 55 0 0 50 0 50 -55 0 -55 0 0 -50z"/>
<path fill="#335DFF" d="M3817 2103 c-4 -3 -7 -26 -7 -50 l0 -43 60 0 60 0 0 50 0 50 -53 0
c-30 0 -57 -3 -60 -7z"/>
<path fill="#335DFF" d="M3940 2060 l0 -50 55 0 55 0 0 50 0 50 -55 0 -55 0 0 -50z"/>
<path fill="#335DFF" d="M4067 2103 c-4 -3 -7 -26 -7 -50 l0 -43 60 0 60 0 0 50 0 50 -53 0
c-30 0 -57 -3 -60 -7z"/>
<path fill="#335DFF" d="M4190 2060 l0 -50 55 0 55 0 0 50 0 50 -55 0 -55 0 0 -50z"/>
<path fill="#335DFF" d="M4317 2104 c-4 -4 -7 -27 -7 -51 l0 -43 61 0 60 0 -3 48 -3 47 -50 3
c-28 2 -54 0 -58 -4z"/>
<path fill="#335DFF" d="M4440 2055 l0 -55 155 0 155 0 0 55 0 55 -155 0 -155 0 0 -55z"/>
<path fill="#335DFF" d="M2700 1925 l0 -55 115 0 115 0 0 55 0 55 -115 0 -115 0 0 -55z"/>
<path fill="#335DFF" d="M2960 1925 l0 -55 60 0 60 0 0 55 0 55 -60 0 -60 0 0 -55z"/>
<path fill="#335DFF" d="M3100 1925 l0 -55 60 0 60 0 0 55 0 55 -60 0 -60 0 0 -55z"/>
<path fill="#335DFF" d="M3250 1925 l0 -55 60 0 60 0 0 55 0 55 -60 0 -60 0 0 -55z"/>
<path fill="#335DFF" d="M3390 1925 l0 -55 60 0 60 0 0 55 0 55 -60 0 -60 0 0 -55z"/>
<path fill="#335DFF" d="M3540 1925 l0 -55 60 0 60 0 0 55 0 55 -60 0 -60 0 0 -55z"/>
<path fill="#335DFF" d="M3680 1925 l0 -55 60 0 60 0 0 55 0 55 -60 0 -60 0 0 -55z"/>
<path fill="#335DFF" d="M3820 1925 l0 -55 60 0 60 0 0 55 0 55 -60 0 -60 0 0 -55z"/>
<path fill="#335DFF" d="M3970 1925 l0 -55 60 0 60 0 0 55 0 55 -60 0 -60 0 0 -55z"/>
<path fill="#335DFF" d="M4110 1925 l0 -55 60 0 60 0 0 55 0 55 -60 0 -60 0 0 -55z"/>
<path fill="#335DFF" d="M4260 1925 l0 -55 60 0 60 0 0 55 0 55 -60 0 -60 0 0 -55z"/>
<path fill="#335DFF" d="M4400 1925 l0 -55 60 0 60 0 0 55 0 55 -60 0 -60 0 0 -55z"/>
<path fill="#335DFF" d="M4550 1926 l0 -55 38 -3 37 -3 3 -67 3 -68 59 0 60 0 0 125 0 125
-100 0 -100 0 0 -54z"/>
<path fill="#335DFF" d="M2700 1785 l0 -55 155 0 155 0 0 55 0 55 -155 0 -155 0 0 -55z"/>
<path fill="#335DFF" d="M3040 1785 l0 -55 55 0 55 0 0 55 0 55 -55 0 -55 0 0 -55z"/>
<path fill="#335DFF" d="M3180 1785 l0 -55 60 0 60 0 0 55 0 55 -60 0 -60 0 0 -55z"/>
<path fill="#335DFF" d="M3330 1785 l0 -55 61 0 60 0 -3 53 -3 52 -57 3 -58 3 0 -56z"/>
<path fill="#335DFF" d="M3470 1785 l0 -55 60 0 60 0 0 55 0 55 -60 0 -60 0 0 -55z"/>
<path fill="#335DFF" d="M3617 1833 c-4 -3 -7 -28 -7 -55 l0 -48 60 0 60 0 0 55 0 55 -53 0
c-30 0 -57 -3 -60 -7z"/>
<path fill="#335DFF" d="M3760 1785 l0 -55 61 0 60 0 -3 53 -3 52 -57 3 -58 3 0 -56z"/>
<path fill="#335DFF" d="M3900 1785 l0 -55 60 0 60 0 0 55 0 55 -60 0 -60 0 0 -55z"/>
<path fill="#335DFF" d="M4047 1834 c-4 -4 -7 -29 -7 -56 l0 -48 66 0 65 0 -3 53 -3 52 -55 3
c-31 2 -59 0 -63 -4z"/>
<path fill="#335DFF" d="M4197 1833 c-4 -3 -7 -28 -7 -55 l0 -48 60 0 60 0 0 55 0 55 -53 0
c-30 0 -57 -3 -60 -7z"/>
<path fill="#335DFF" d="M4340 1780 l0 -60 60 0 60 0 0 60 0 60 -60 0 -60 0 0 -60z"/>
<path fill="#335DFF" d="M4490 1780 l0 -60 60 0 60 0 0 60 0 60 -60 0 -60 0 0 -60z"/>
<path fill="#335DFF" d="M4590 1696 c0 -7 3 -28 7 -46 l6 -33 11 34 c17 53 41 49 61 -10 15
-46 20 -51 46 -51 29 0 29 0 29 60 l0 60 -80 0 c-61 0 -80 -3 -80 -14z"/>
<path fill="#335DFF" d="M2700 1645 l0 -55 115 0 115 0 0 55 0 55 -115 0 -115 0 0 -55z"/>
<path fill="#335DFF" d="M2960 1645 l0 -55 60 0 60 0 0 55 0 55 -60 0 -60 0 0 -55z"/>
<path fill="#335DFF" d="M3100 1650 l0 -50 60 0 60 0 0 50 0 50 -60 0 -60 0 0 -50z"/>
<path fill="#335DFF" d="M3240 1650 l0 -50 60 0 60 0 0 50 0 50 -60 0 -60 0 0 -50z"/>
<path fill="#335DFF" d="M3390 1650 l0 -50 60 0 60 0 0 50 0 50 -60 0 -60 0 0 -50z"/>
<path fill="#335DFF" d="M3530 1650 l0 -50 60 0 60 0 0 50 0 50 -60 0 -60 0 0 -50z"/>
<path fill="#335DFF" d="M3680 1650 l0 -50 61 0 60 0 -3 48 -3 47 -57 3 -58 3 0 -51z"/>
<path fill="#335DFF" d="M3820 1650 l0 -50 60 0 60 0 0 50 0 50 -60 0 -60 0 0 -50z"/>
<path fill="#335DFF" d="M3960 1650 l0 -50 60 0 60 0 0 50 0 50 -60 0 -60 0 0 -50z"/>
<path fill="#335DFF" d="M4100 1650 l0 -50 60 0 60 0 0 50 0 50 -60 0 -60 0 0 -50z"/>
<path fill="#335DFF" d="M4247 1693 c-4 -3 -7 -26 -7 -50 l0 -43 59 0 59 0 7 40 c4 21 4 44 0
50 -7 11 -108 14 -118 3z"/>
<path fill="#335DFF" d="M4390 1679 c0 -11 8 -34 17 -50 15 -25 23 -29 60 -29 l43 0 0 50 0
50 -60 0 c-54 0 -60 -2 -60 -21z"/>
<path fill="#335DFF" d="M5432 1647 c-12 -7 -29 -22 -37 -33 -9 -13 -43 -217 -91 -537 -83
-563 -82 -546 -24 -588 34 -25 1579 -255 1624 -242 63 18 64 24 143 551 39
268 72 502 73 520 0 43 -22 85 -54 100 -21 9 -1562 243 -1598 242 -7 -1 -23
-6 -36 -13z m811 -162 c392 -58 727 -112 745 -120 60 -28 60 -23 -7 -481 l-62
-419 -30 -27 c-16 -16 -38 -28 -49 -28 -24 0 -1432 208 -1466 216 -32 8 -64
50 -64 84 0 53 118 817 129 839 13 23 43 39 74 40 10 1 339 -46 730 -104z
m-111 -1012 c51 -46 -20 -123 -74 -80 -28 21 -31 54 -9 76 25 25 58 27 83 4z"/>
<path fill="#335DFF" d="M1362 1536 c-156 -61 -287 -118 -292 -126 -6 -8 -10 -25 -10 -38 0
-20 394 -1041 427 -1105 30 -58 39 -57 350 65 157 62 292 118 299 126 8 7 14
28 14 45 0 43 -412 1092 -441 1123 -12 13 -32 24 -43 23 -12 0 -148 -51 -304
-113z m317 47 c14 -12 85 -180 207 -493 174 -443 185 -477 172 -500 -10 -18
-44 -37 -130 -71 l-117 -46 29 -22 c48 -35 33 -103 -23 -104 -50 0 -75 42 -51
87 7 14 12 26 11 26 -1 0 -53 -20 -116 -45 -125 -50 -150 -53 -173 -27 -21 23
-378 938 -378 967 0 12 7 29 16 36 17 14 500 208 520 209 7 0 21 -8 33 -17z"/>
<path fill="#335DFF" d="M2700 1533 c0 -16 3 -38 6 -50 6 -22 10 -23 140 -23 l134 0 0 50 0
50 -140 0 -140 0 0 -27z"/>
<path fill="#335DFF" d="M3000 1510 l0 -50 60 0 60 0 0 50 0 50 -60 0 -60 0 0 -50z"/>
<path fill="#335DFF" d="M3140 1510 l0 -50 65 0 65 0 0 50 0 50 -65 0 -65 0 0 -50z"/>
<path fill="#335DFF" d="M3280 1510 l0 -50 380 0 380 0 0 50 0 50 -380 0 -380 0 0 -50z"/>
<path fill="#335DFF" d="M4500 1540 c0 -11 7 -20 15 -20 8 0 15 9 15 20 0 11 -7 20 -15 20 -8
0 -15 -9 -15 -20z"/>
<path fill="#335DFF" d="M4477 1480 c3 -11 7 -20 9 -20 2 0 4 9 4 20 0 11 -4 20 -9 20 -5 0
-7 -9 -4 -20z"/>
<path fill="#335DFF" d="M4500 1476 c0 -20 5 -26 21 -26 15 0 20 5 17 22 -5 34 -38 37 -38 4z"/>
<path fill="#335DFF" d="M4731 1484 c0 -11 3 -14 6 -6 3 7 2 16 -1 19 -3 4 -6 -2 -5 -13z"/>
<path fill="#335DFF" d="M4381 1464 c0 -11 3 -14 6 -6 3 7 2 16 -1 19 -3 4 -6 -2 -5 -13z"/>
<path fill="#335DFF" d="M430 1151 c-139 -29 -243 -168 -227 -302 28 -237 291 -341 465 -184
123 111 131 278 18 403 -58 64 -171 101 -256 83z"/>
<path fill="#335DFF" d="M4300 125 l0 -125 220 0 220 0 0 125 0 125 -220 0 -220 0 0 -125z"/>
<path fill="#335DFF" d="M2320 110 l0 -110 215 0 215 0 0 110 0 110 -215 0 -215 0 0 -110z"/>
</g>
</svg>
