<svg width="960" height="1080" viewBox="0 0 960 1080" fill="none" xmlns="http://www.w3.org/2000/svg">
<mask id="path-1-inside-1_1_16" fill="white">
<path d="M0 0H460C736.142 0 960 223.858 960 500V580C960 856.142 736.142 1080 460 1080H0V0Z"/>
</mask>
<path d="M0 0H460C736.142 0 960 223.858 960 500V580C960 856.142 736.142 1080 460 1080H0V0Z" fill="#F7F7F7"/>
<path d="M0 0H960H0ZM960 1080H0H960ZM0 1080V0V1080ZM460 0C736.695 0 961 224.305 961 501V579C961 855.695 736.695 1080 460 1080C735.59 1080 959 856.142 959 580V500C959 223.858 735.59 0 460 0Z" fill="#5867DD" mask="url(#path-1-inside-1_1_16)"/>
</svg>
