<svg width="579" height="581" viewBox="0 0 579 581" fill="none" xmlns="http://www.w3.org/2000/svg">
<path d="M55.6801 489.303L50.5807 469.188C41.5394 465.355 32.2891 462.036 22.874 459.246L22.2304 468.594L19.62 458.295C7.94363 454.956 0 453.488 0 453.488C0 453.488 10.7273 494.297 33.2344 525.495L59.4572 530.102L39.0854 533.041C41.9166 536.448 44.9591 539.673 48.1951 542.698C80.9327 573.091 117.397 587.036 129.639 573.844C141.882 560.652 125.267 525.32 92.5291 494.93C82.3801 485.508 69.631 477.947 56.8686 471.995L55.6801 489.303Z" fill="#F1953C"/>
<path d="M104.175 467.454L110.206 447.599C104.447 439.644 98.2445 432.02 91.6274 424.764L86.245 432.433L89.3327 422.267C81.061 413.376 75.0203 408.012 75.0203 408.012C75.0203 408.012 63.1153 448.493 66.2558 486.836L86.3228 504.337L67.3619 496.32C68.0254 500.701 68.9636 505.035 70.1712 509.299C82.4889 552.242 106.497 583.031 123.794 578.067C141.092 573.104 145.129 534.268 132.812 491.325C128.993 478.012 121.986 464.948 114.138 453.256L104.175 467.454Z" fill="#44A329"/>
<path d="M404.023 137.6H400.842V50.445C400.842 43.8205 399.538 37.2608 397.003 31.1406C394.468 25.0203 390.753 19.4593 386.07 14.775C381.387 10.0908 375.826 6.375 369.707 3.8399C363.588 1.3048 357.03 0 350.406 0H165.783C152.406 0 139.577 5.31473 130.119 14.775C120.66 24.2353 115.346 37.0662 115.346 50.445V528.593C115.346 535.218 116.651 541.778 119.186 547.898C121.72 554.018 125.435 559.579 130.119 564.263C134.802 568.948 140.362 572.663 146.481 575.199C152.601 577.734 159.159 579.038 165.783 579.038H350.406C363.783 579.038 376.611 573.723 386.069 564.263C395.528 554.803 400.842 541.972 400.842 528.593V199.639H404.022L404.023 137.6Z" fill="#5867DD"/>
<path d="M352.441 13.1191H328.344C329.452 15.8369 329.875 18.7855 329.575 21.7053C329.276 24.6251 328.263 27.4264 326.626 29.8624C324.989 32.2984 322.778 34.2944 320.188 35.6744C317.598 37.0544 314.708 37.7762 311.774 37.776H206.005C203.071 37.7759 200.181 37.054 197.592 35.6738C195.002 34.2937 192.791 32.2977 191.154 29.8618C189.517 27.4258 188.505 24.6246 188.205 21.7049C187.906 18.7853 188.329 15.8368 189.437 13.1191H166.928C156.939 13.1191 147.359 17.0881 140.295 24.153C133.231 31.2178 129.263 40.7998 129.263 50.791V528.245C129.263 538.236 133.231 547.818 140.295 554.883C147.359 561.948 156.939 565.917 166.928 565.917H352.441C362.431 565.917 372.011 561.948 379.075 554.883C386.138 547.818 390.106 538.236 390.106 528.245V50.7902C390.106 40.7992 386.138 31.2174 379.074 24.1527C372.011 17.088 362.43 13.1191 352.441 13.1191Z" fill="white"/>
<path d="M315.053 262.685H204.282C203.227 262.684 202.216 262.265 201.471 261.519C200.725 260.773 200.305 259.762 200.304 258.707V147.917C200.305 146.862 200.725 145.851 201.471 145.105C202.216 144.359 203.227 143.939 204.282 143.938H315.053C316.107 143.939 317.118 144.359 317.864 145.105C318.61 145.851 319.029 146.862 319.03 147.917V258.707C319.029 259.762 318.61 260.773 317.864 261.519C317.118 262.265 316.107 262.684 315.053 262.685ZM204.282 145.53C203.649 145.531 203.042 145.783 202.595 146.23C202.148 146.678 201.896 147.284 201.895 147.917V258.708C201.896 259.341 202.148 259.947 202.595 260.395C203.042 260.842 203.649 261.094 204.282 261.095H315.053C315.685 261.094 316.292 260.842 316.74 260.395C317.187 259.947 317.439 259.341 317.439 258.708V147.917C317.439 147.284 317.187 146.678 316.74 146.23C316.292 145.783 315.685 145.531 315.053 145.53H204.282Z" fill="#5867DD"/>
<path d="M339.786 347.611H169.897V349.203H339.786V347.611Z" fill="#5867DD"/>
<path d="M175.262 337.675C178.225 337.675 180.627 335.273 180.627 332.309C180.627 329.346 178.225 326.943 175.262 326.943C172.299 326.943 169.897 329.346 169.897 332.309C169.897 335.273 172.299 337.675 175.262 337.675Z" fill="#5867DD"/>
<path d="M339.786 401.27H169.897V402.861H339.786V401.27Z" fill="#5867DD"/>
<path d="M175.262 391.334C178.225 391.334 180.627 388.932 180.627 385.968C180.627 383.005 178.225 380.602 175.262 380.602C172.299 380.602 169.897 383.005 169.897 385.968C169.897 388.932 172.299 391.334 175.262 391.334Z" fill="#5867DD"/>
<path d="M336.677 462.374H282.987C282.06 462.373 281.171 462.004 280.515 461.348C279.859 460.692 279.49 459.803 279.489 458.875V440.054C279.49 439.126 279.859 438.237 280.515 437.581C281.171 436.925 282.06 436.556 282.987 436.555H336.677C337.604 436.556 338.493 436.925 339.149 437.581C339.805 438.237 340.174 439.126 340.175 440.054V458.875C340.174 459.803 339.805 460.692 339.149 461.348C338.493 462.004 337.604 462.373 336.677 462.374Z" fill="#5867DD"/>
<path d="M192.763 337.675C195.726 337.675 198.128 335.273 198.128 332.309C198.128 329.346 195.726 326.943 192.763 326.943C189.8 326.943 187.398 329.346 187.398 332.309C187.398 335.273 189.8 337.675 192.763 337.675Z" fill="#5867DD"/>
<path d="M210.264 337.675C213.227 337.675 215.629 335.273 215.629 332.309C215.629 329.346 213.227 326.943 210.264 326.943C207.301 326.943 204.899 329.346 204.899 332.309C204.899 335.273 207.301 337.675 210.264 337.675Z" fill="#5867DD"/>
<path d="M192.763 391.334C195.726 391.334 198.128 388.932 198.128 385.968C198.128 383.005 195.726 380.602 192.763 380.602C189.8 380.602 187.398 383.005 187.398 385.968C187.398 388.932 189.8 391.334 192.763 391.334Z" fill="#5867DD"/>
<path d="M210.264 391.334C213.227 391.334 215.629 388.932 215.629 385.968C215.629 383.005 213.227 380.602 210.264 380.602C207.301 380.602 204.899 383.005 204.899 385.968C204.899 388.932 207.301 391.334 210.264 391.334Z" fill="#5867DD"/>
<path opacity="0.2" d="M576.838 580.835H18.7184C17.5236 580.835 16.5558 580.411 16.5558 579.888C16.5558 579.366 17.5236 578.94 18.7184 578.94H576.838C578.031 578.94 579 579.365 579 579.888C579 580.411 578.031 580.835 576.838 580.835Z" fill="#3F3D56"/>
<path d="M438.946 380.545C439.327 380.719 439.694 380.924 440.042 381.157L474.908 366.274L476.152 357.088L490.083 357.002L489.26 378.071L443.242 390.243C443.145 390.563 443.029 390.876 442.894 391.182C442.229 392.602 441.159 393.794 439.819 394.607C438.478 395.421 436.928 395.821 435.361 395.756C433.795 395.691 432.282 395.165 431.014 394.243C429.745 393.321 428.778 392.045 428.232 390.575C427.686 389.105 427.587 387.506 427.947 385.98C428.306 384.454 429.109 383.068 430.254 381.996C431.398 380.924 432.834 380.215 434.38 379.957C435.927 379.699 437.515 379.903 438.946 380.545Z" fill="#FFB8B8"/>
<path d="M495.15 571.462H485.62L481.086 534.697L495.151 534.697L495.15 571.462Z" fill="#FFB8B8"/>
<path d="M478.813 568.738H497.192V580.312H467.24C467.24 577.243 468.46 574.299 470.63 572.128C472.8 569.958 475.743 568.738 478.813 568.738Z" fill="#2F2E41"/>
<path d="M532.214 568.769L522.729 569.703L514.613 533.56L528.611 532.181L532.214 568.769Z" fill="#FFB8B8"/>
<path d="M515.688 567.66L533.979 565.858L535.113 577.377L505.306 580.313C505.157 578.8 505.308 577.273 505.749 575.819C506.19 574.364 506.913 573.011 507.877 571.836C508.841 570.661 510.027 569.688 511.368 568.971C512.708 568.255 514.176 567.809 515.688 567.66Z" fill="#2F2E41"/>
<path d="M497.803 318.093C508.347 318.093 516.895 309.543 516.895 298.997C516.895 288.451 508.347 279.902 497.803 279.902C487.258 279.902 478.71 288.451 478.71 298.997C478.71 309.543 487.258 318.093 497.803 318.093Z" fill="#FFB8B8"/>
<path d="M483.49 564.027C482.671 564.029 481.878 563.742 481.25 563.216C480.622 562.69 480.2 561.959 480.058 561.152C475.125 533.765 459.002 444.216 458.616 441.735C458.608 441.678 458.603 441.621 458.604 441.563V434.886C458.603 434.643 458.679 434.406 458.821 434.208L460.951 431.224C461.052 431.081 461.185 430.962 461.339 430.878C461.493 430.794 461.665 430.746 461.84 430.738C473.984 430.169 513.754 428.5 515.675 430.901C517.605 433.314 516.923 440.624 516.767 442.066L516.775 442.216L534.642 556.501C534.782 557.413 534.557 558.342 534.017 559.09C533.476 559.837 532.664 560.341 531.754 560.493L520.595 562.332C519.763 562.466 518.912 562.296 518.195 561.855C517.478 561.414 516.943 560.73 516.688 559.928C513.236 548.896 501.663 511.788 497.652 497.429C497.627 497.338 497.569 497.259 497.49 497.207C497.412 497.156 497.317 497.134 497.223 497.148C497.13 497.161 497.044 497.208 496.983 497.279C496.922 497.351 496.888 497.442 496.889 497.537C497.09 511.225 497.574 546.147 497.741 558.209L497.759 559.508C497.767 560.387 497.444 561.238 496.855 561.891C496.266 562.544 495.453 562.952 494.578 563.035L483.817 564.012C483.707 564.022 483.598 564.027 483.49 564.027Z" fill="#2F2E41"/>
<path d="M485.686 325.601C482.354 327.582 480.36 331.223 479.216 334.927C477.098 341.786 475.823 348.876 475.419 356.043L474.21 377.502L459.242 434.39C472.215 445.368 479.698 442.873 497.161 433.893C514.624 424.913 516.62 436.887 516.62 436.887L520.112 388.483L525.101 335.589C523.981 334.24 522.714 333.021 521.322 331.955C516.711 328.368 511.345 325.875 505.63 324.664C499.915 323.453 494 323.554 488.33 324.961L485.686 325.601Z" fill="#5867DD"/>
<path d="M480.824 392.034C481.227 392.186 481.617 392.369 481.99 392.581L516.464 375.324L517.036 365.974L531.257 364.993L532.019 386.306L485.949 401.544C485.573 403.158 484.715 404.619 483.488 405.733C482.261 406.847 480.725 407.561 479.083 407.78C477.441 407.999 475.771 407.713 474.295 406.96C472.819 406.207 471.608 405.022 470.822 403.563C470.036 402.105 469.712 400.441 469.894 398.794C470.076 397.147 470.755 395.595 471.841 394.343C472.927 393.092 474.368 392.2 475.973 391.788C477.577 391.375 479.269 391.461 480.824 392.034Z" fill="#FFB8B8"/>
<path d="M524.852 335.831C533.334 338.825 534.828 371.264 534.828 371.264C524.849 365.774 512.875 374.757 512.875 374.757C512.875 374.757 510.38 366.274 507.386 355.295C506.482 352.207 506.374 348.941 507.072 345.799C507.77 342.658 509.251 339.745 511.378 337.331C511.378 337.331 516.37 332.835 524.852 335.831Z" fill="#5867DD"/>
<path d="M514.922 304.047C512.543 302.144 509.297 305.604 509.297 305.604L507.394 288.473C507.394 288.473 495.5 289.898 487.888 287.997C480.276 286.097 479.087 294.898 479.087 294.898C478.694 291.343 478.615 287.76 478.849 284.191C479.324 279.908 485.509 275.626 496.452 272.77C507.394 269.915 513.103 282.288 513.103 282.288C520.716 286.094 517.3 305.951 514.922 304.047Z" fill="#2F2E41"/>
</svg>
