<svg width="508" height="313" viewBox="0 0 508 313" fill="none" xmlns="http://www.w3.org/2000/svg">
<g clip-path="url(#clip0_1_9)">
<path d="M477.285 264.435L480.042 253.564C484.929 251.492 489.929 249.698 495.018 248.19L495.366 253.243L496.777 247.676C503.089 245.872 507.383 245.078 507.383 245.078C507.383 245.078 501.584 267.134 489.418 283.995L475.244 286.485L486.255 288.073C484.725 289.914 483.08 291.657 481.331 293.292C463.635 309.718 443.925 317.255 437.307 310.125C430.69 302.995 439.671 283.9 457.367 267.476C462.853 262.384 469.744 258.297 476.643 255.081L477.285 264.435Z" fill="#6C63FF"/>
<path d="M451.072 252.627L447.812 241.896C450.925 237.597 454.278 233.476 457.854 229.555L460.764 233.7L459.095 228.206C463.566 223.4 466.831 220.501 466.831 220.501C466.831 220.501 473.266 242.379 471.569 263.102L460.722 272.56L470.971 268.227C470.612 270.595 470.105 272.937 469.452 275.242C462.794 298.45 449.817 315.09 440.467 312.407C431.117 309.725 428.934 288.736 435.592 265.528C437.656 258.333 441.444 251.272 445.687 244.953L451.072 252.627Z" fill="#5850CD"/>
<path d="M288.991 74.3576H290.71V27.2547C290.71 23.6745 291.415 20.1293 292.786 16.8217C294.156 13.514 296.164 10.5085 298.695 7.97695C301.227 5.44535 304.232 3.43717 307.54 2.06708C310.848 0.696995 314.393 -0.00817871 317.973 -0.00817871H417.77C425.001 -0.00817871 431.935 2.86416 437.048 7.97695C442.161 13.0897 445.033 20.0241 445.033 27.2547V285.669C445.033 289.249 444.328 292.795 442.958 296.102C441.588 299.41 439.58 302.415 437.048 304.947C434.516 307.479 431.511 309.487 428.203 310.857C424.896 312.227 421.351 312.932 417.77 312.932H317.973C310.743 312.932 303.808 310.06 298.696 304.947C293.583 299.834 290.711 292.9 290.711 285.669V107.886H288.991V74.3576Z" fill="#E6E6E6"/>
<path d="M316.873 7.08203H329.899C329.3 8.55083 329.071 10.1444 329.233 11.7224C329.395 13.3004 329.943 14.8143 330.828 16.1309C331.712 17.4474 332.907 18.5261 334.307 19.2719C335.707 20.0178 337.269 20.4078 338.856 20.4078H396.028C397.615 20.4077 399.176 20.0175 400.576 19.2716C401.976 18.5258 403.171 17.447 404.056 16.1305C404.941 14.814 405.488 13.3001 405.65 11.7222C405.812 10.1443 405.583 8.55076 404.984 7.08203H417.151C422.551 7.08203 427.729 9.22706 431.548 13.0452C435.366 16.8634 437.511 22.042 437.511 27.4417V285.481C437.511 290.881 435.366 296.059 431.548 299.877C427.729 303.696 422.551 305.841 417.151 305.841H316.873C311.474 305.841 306.295 303.696 302.477 299.877C298.659 296.059 296.514 290.881 296.514 285.481V27.4413C296.514 22.0416 298.659 16.8632 302.477 13.0451C306.295 9.227 311.474 7.08203 316.873 7.08203Z" fill="white"/>
<path d="M379.79 109.872C379.79 108.068 379.315 106.296 378.413 104.734C377.511 103.172 376.213 101.876 374.651 100.975C376.213 100.073 377.984 99.5977 379.788 99.5975C381.591 99.5973 383.363 100.072 384.925 100.974C386.487 101.875 387.784 103.172 388.686 104.734C389.588 106.296 390.062 108.068 390.062 109.871C390.062 111.675 389.588 113.446 388.686 115.008C387.784 116.57 386.487 117.867 384.925 118.769C383.363 119.67 381.591 120.145 379.788 120.145C377.984 120.145 376.213 119.67 374.651 118.768C376.213 117.867 377.511 116.57 378.413 115.009C379.315 113.447 379.79 111.675 379.79 109.872Z" fill="#CCCCCC"/>
<path d="M366.875 109.872C366.875 108.068 366.4 106.296 365.498 104.734C364.596 103.172 363.298 101.876 361.736 100.975C363.298 100.073 365.069 99.5977 366.873 99.5975C368.676 99.5973 370.448 100.072 372.01 100.974C373.572 101.875 374.869 103.172 375.771 104.734C376.673 106.296 377.147 108.068 377.147 109.871C377.147 111.675 376.673 113.446 375.771 115.008C374.869 116.57 373.572 117.867 372.01 118.769C370.448 119.67 368.676 120.145 366.873 120.145C365.069 120.145 363.298 119.67 361.736 118.768C363.298 117.867 364.596 116.57 365.498 115.009C366.4 113.447 366.875 111.675 366.875 109.872Z" fill="#CCCCCC"/>
<path d="M354.253 120.145C348.579 120.145 343.979 115.545 343.979 109.871C343.979 104.198 348.579 99.5977 354.253 99.5977C359.927 99.5977 364.526 104.198 364.526 109.871C364.526 115.545 359.927 120.145 354.253 120.145Z" fill="#6C63FF"/>
<path d="M337.083 141.96H396.96C397.53 141.959 398.076 141.732 398.479 141.329C398.882 140.926 399.109 140.38 399.11 139.81V79.933C399.109 79.363 398.882 78.8165 398.479 78.4134C398.076 78.0103 397.53 77.7836 396.96 77.7829H337.083C336.513 77.7836 335.967 78.0103 335.564 78.4134C335.161 78.8165 334.934 79.363 334.933 79.933V139.81C334.934 140.38 335.161 140.926 335.564 141.329C335.967 141.732 336.513 141.959 337.083 141.96ZM396.96 78.6435C397.302 78.6438 397.63 78.7798 397.872 79.0217C398.113 79.2635 398.249 79.5914 398.25 79.9335V139.81C398.249 140.152 398.113 140.48 397.872 140.722C397.63 140.964 397.302 141.1 396.96 141.1H337.083C336.741 141.1 336.413 140.964 336.172 140.722C335.93 140.48 335.794 140.152 335.793 139.81V79.9335C335.794 79.5914 335.93 79.2635 336.172 79.0217C336.413 78.7798 336.741 78.6438 337.083 78.6435H396.96Z" fill="#CCCCCC"/>
<path d="M323.714 187.858H415.546V188.718H323.714V187.858Z" fill="#CCCCCC"/>
<path d="M412.646 182.488C411.045 182.488 409.746 181.189 409.746 179.588C409.746 177.986 411.045 176.688 412.646 176.688C414.248 176.688 415.546 177.986 415.546 179.588C415.546 181.189 414.248 182.488 412.646 182.488Z" fill="#6C63FF"/>
<path d="M323.714 216.858H415.546V217.718H323.714V216.858Z" fill="#CCCCCC"/>
<path d="M412.646 211.488C411.045 211.488 409.746 210.189 409.746 208.588C409.746 206.986 411.045 205.688 412.646 205.688C414.248 205.688 415.546 206.986 415.546 208.588C415.546 210.189 414.248 211.488 412.646 211.488Z" fill="#6C63FF"/>
<path d="M325.394 249.881H354.416C354.917 249.88 355.398 249.681 355.752 249.326C356.107 248.972 356.306 248.491 356.307 247.99V237.818C356.306 237.317 356.107 236.836 355.752 236.482C355.398 236.127 354.917 235.928 354.416 235.927H325.394C324.893 235.928 324.412 236.127 324.058 236.482C323.703 236.836 323.504 237.317 323.503 237.818V247.99C323.504 248.491 323.703 248.972 324.058 249.326C324.412 249.681 324.893 249.88 325.394 249.881Z" fill="#6C63FF"/>
<path d="M403.186 182.488C401.584 182.488 400.286 181.189 400.286 179.588C400.286 177.986 401.584 176.688 403.186 176.688C404.788 176.688 406.086 177.986 406.086 179.588C406.086 181.189 404.788 182.488 403.186 182.488Z" fill="#6C63FF"/>
<path d="M393.726 182.488C392.124 182.488 390.826 181.189 390.826 179.588C390.826 177.986 392.124 176.688 393.726 176.688C395.328 176.688 396.626 177.986 396.626 179.588C396.626 181.189 395.328 182.488 393.726 182.488Z" fill="#6C63FF"/>
<path d="M403.186 211.488C401.584 211.488 400.286 210.189 400.286 208.588C400.286 206.986 401.584 205.688 403.186 205.688C404.788 205.688 406.086 206.986 406.086 208.588C406.086 210.189 404.788 211.488 403.186 211.488Z" fill="#6C63FF"/>
<path d="M393.726 211.488C392.124 211.488 390.826 210.189 390.826 208.588C390.826 206.986 392.124 205.688 393.726 205.688C395.328 205.688 396.626 206.986 396.626 208.588C396.626 210.189 395.328 211.488 393.726 211.488Z" fill="#6C63FF"/>
<path d="M153.209 65.9469C155.058 65.9469 156.558 64.4474 156.558 62.5976C156.558 60.7479 155.058 59.2484 153.209 59.2484C151.359 59.2484 149.859 60.7479 149.859 62.5976C149.859 64.4474 151.359 65.9469 153.209 65.9469Z" fill="white"/>
<path d="M301 69.9918H7V244.992H301V69.9918Z" fill="white"/>
<path fill-rule="evenodd" clip-rule="evenodd" d="M294 72.9918H13C10.7909 72.9918 9 74.7827 9 76.9918V236.992C9 239.201 10.7909 240.992 13 240.992H294C296.209 240.992 298 239.201 298 236.992V76.9918C298 74.7827 296.209 72.9918 294 72.9918ZM13 63.9918C5.8203 63.9918 0 69.8121 0 76.9918V236.992C0 244.172 5.8203 249.992 13 249.992H294C301.18 249.992 307 244.172 307 236.992V76.9918C307 69.8121 301.18 63.9918 294 63.9918H13Z" fill="#3F3D56"/>
<path d="M153.5 70.9918C154.881 70.9918 156 69.8725 156 68.4918C156 67.1111 154.881 65.9918 153.5 65.9918C152.119 65.9918 151 67.1111 151 68.4918C151 69.8725 152.119 70.9918 153.5 70.9918Z" fill="white"/>
<path d="M261.522 188.159H46.9731C45.9197 188.158 44.9099 187.739 44.1651 186.994C43.4202 186.249 43.0012 185.239 43 184.186V130.965C43.0012 129.912 43.4202 128.902 44.1651 128.157C44.9099 127.412 45.9197 126.993 46.9731 126.992H261.522C262.576 126.993 263.586 127.412 264.33 128.157C265.075 128.902 265.494 129.912 265.496 130.965V184.186C265.494 185.239 265.075 186.249 264.33 186.994C263.586 187.739 262.576 188.158 261.522 188.159ZM46.9731 128.581C46.3411 128.582 45.7351 128.833 45.2882 129.28C44.8413 129.727 44.5899 130.333 44.5893 130.965V184.186C44.5899 184.818 44.8413 185.424 45.2882 185.871C45.7351 186.317 46.3411 186.569 46.9731 186.57H261.522C262.154 186.569 262.76 186.317 263.207 185.871C263.654 185.424 263.906 184.818 263.906 184.186V130.965C263.906 130.333 263.654 129.727 263.207 129.28C262.76 128.833 262.154 128.582 261.522 128.581H46.9731Z" fill="#E6E6E6"/>
<path d="M80.3094 171.718C89.2478 171.718 96.4939 164.472 96.4939 155.533C96.4939 146.595 89.2478 139.349 80.3094 139.349C71.371 139.349 64.125 146.595 64.125 155.533C64.125 164.472 71.371 171.718 80.3094 171.718Z" fill="#E6E6E6"/>
<path d="M117.688 144.744C117.333 144.743 116.982 144.813 116.654 144.948C116.327 145.083 116.029 145.282 115.778 145.532C115.527 145.783 115.328 146.08 115.192 146.408C115.056 146.735 114.986 147.087 114.986 147.441C114.986 147.796 115.056 148.147 115.192 148.474C115.328 148.802 115.527 149.1 115.778 149.35C116.029 149.601 116.327 149.799 116.654 149.934C116.982 150.07 117.333 150.139 117.688 150.139H244.851C245.567 150.139 246.253 149.854 246.759 149.349C247.264 148.843 247.549 148.157 247.549 147.441C247.549 146.726 247.264 146.04 246.759 145.534C246.253 145.028 245.567 144.744 244.851 144.744H117.688Z" fill="#E6E6E6"/>
<path d="M117.688 160.928C116.973 160.928 116.287 161.212 115.781 161.718C115.275 162.224 114.991 162.91 114.991 163.626C114.991 164.341 115.275 165.027 115.781 165.533C116.287 166.039 116.973 166.323 117.688 166.323H172.407C173.122 166.323 173.808 166.039 174.314 165.533C174.82 165.027 175.104 164.341 175.104 163.626C175.104 162.91 174.82 162.224 174.314 161.718C173.808 161.212 173.122 160.928 172.407 160.928H117.688Z" fill="#E6E6E6"/>
<path d="M297.969 121.023C326.743 121.023 350.068 97.6974 350.068 68.9239C350.068 40.1505 326.743 16.825 297.969 16.825C269.196 16.825 245.87 40.1505 245.87 68.9239C245.87 97.6974 269.196 121.023 297.969 121.023Z" fill="#6C63FF"/>
<path d="M319.553 91.6242H276.385C275.596 91.6235 274.839 91.3095 274.281 90.7514C273.723 90.1933 273.409 89.4365 273.408 88.6471V62.5977C273.409 61.8083 273.723 61.0516 274.281 60.4935C274.839 59.9353 275.596 59.6214 276.385 59.6206H319.553C320.342 59.6214 321.099 59.9353 321.657 60.4935C322.215 61.0516 322.529 61.8083 322.53 62.5977V88.6471C322.529 89.4365 322.215 90.1933 321.657 90.7514C321.099 91.3095 320.342 91.6235 319.553 91.6242ZM276.385 62.5977V88.6471H319.555L319.553 62.5977H276.385Z" fill="white"/>
<path d="M311.366 62.5977H284.572V50.6893C284.572 42.0641 290.207 35.8039 297.969 35.8039C305.732 35.8039 311.366 42.0641 311.366 50.6893V62.5977ZM287.549 59.6206H308.389V50.6893C308.389 43.678 304.104 38.781 297.969 38.781C291.834 38.781 287.549 43.678 287.549 50.6893V59.6206Z" fill="white"/>
<path d="M297.969 77.8552C299.613 77.8552 300.946 76.5223 300.946 74.8781C300.946 73.2339 299.613 71.901 297.969 71.901C296.325 71.901 294.992 73.2339 294.992 74.8781C294.992 76.5223 296.325 77.8552 297.969 77.8552Z" fill="white"/>
</g>
<defs>
<clipPath id="clip0_1_9">
<rect width="508" height="313" fill="white" transform="translate(0 -0.00817871)"/>
</clipPath>
</defs>
</svg>
