<svg width="29" height="28" viewBox="0 0 29 28" fill="none" xmlns="http://www.w3.org/2000/svg">
<path fill-rule="evenodd" clip-rule="evenodd" d="M0.574022 24.7255C1.78964 18.8316 8.30233 15.8679 14.4089 15.8679C20.516 15.8679 27.029 18.832 28.2448 24.7265L28.2448 24.7266C28.3541 25.2568 28.2479 25.8245 27.8885 26.2837C27.5127 26.764 26.8932 27.0756 26.1503 27.0756H2.66827C1.92584 27.0756 1.30595 26.7643 0.929705 26.2842C0.569878 25.8251 0.46316 25.2569 0.574022 24.7255ZM14.4089 17.7359C8.90805 17.7359 3.63983 20.3756 2.67468 25.0582L2.67442 25.0594L2.67416 25.0607C2.66376 25.1104 2.66576 25.1517 2.67229 25.1817C2.67459 25.1923 2.6773 25.2009 2.67991 25.2076H26.1378C26.1404 25.2007 26.1432 25.192 26.1455 25.1813C26.1522 25.1507 26.1543 25.1086 26.1439 25.0583C25.1781 20.3756 19.9098 17.7359 14.4089 17.7359Z" fill="#5867DD"/>
<path fill-rule="evenodd" clip-rule="evenodd" d="M14.409 14C18.2407 14 21.347 11.0729 21.347 7.4622C21.347 3.85148 18.2407 0.924408 14.409 0.924408C10.5772 0.924408 7.47089 3.85148 7.47089 7.4622C7.47089 11.0729 10.5772 14 14.409 14ZM14.4089 12.2488C17.2091 12.2488 19.4791 10.1058 19.4791 7.4622C19.4791 4.81864 17.2091 2.67561 14.4089 2.67561C11.6088 2.67561 9.33881 4.81864 9.33881 7.4622C9.33881 10.1058 11.6088 12.2488 14.4089 12.2488Z" fill="#5867DD"/>
</svg>
