<?xml version="1.0" standalone="no"?>
<!DOCTYPE svg PUBLIC "-//W3C//DTD SVG 20010904//EN"
 "http://www.w3.org/TR/2001/REC-SVG-20010904/DTD/svg10.dtd">
<svg version="1.0" xmlns="http://www.w3.org/2000/svg"
 width="928.000000pt" height="884.000000pt" viewBox="0 0 928.000000 884.000000"
 preserveAspectRatio="xMidYMid meet">

<g transform="translate(0.000000,884.000000) scale(0.100000,-0.100000)"
fill="#000000" stroke="none">
<path d="M4366 8803 c-41 -65 -171 -175 -254 -218 -33 -16 -121 -88 -193 -159
l-37 -35 -6 37 c-3 21 -12 46 -20 57 -15 20 -16 19 -40 -8 -14 -16 -28 -42
-31 -58 -4 -16 -10 -31 -14 -34 -8 -4 -28 35 -51 99 -10 27 -11 28 -29 12 -10
-9 -22 -31 -25 -48 -3 -18 -11 -50 -17 -72 l-11 -39 -18 40 c-22 49 -97 164
-143 217 -25 29 -38 38 -51 33 -14 -6 -17 -15 -13 -40 5 -38 -12 -92 -50 -154
-42 -69 -92 -112 -149 -129 -28 -8 -70 -31 -93 -50 -29 -25 -41 -31 -41 -20 0
9 -4 16 -10 16 -6 0 -10 35 -10 84 0 46 -3 91 -6 100 -11 28 -30 17 -42 -21
-9 -28 -26 -48 -68 -78 -33 -24 -64 -56 -76 -80 -25 -49 -99 -165 -105 -165
-3 0 -3 32 -2 72 5 89 -7 96 -64 36 -49 -51 -171 -203 -208 -259 l-25 -39 -41
37 c-22 21 -48 51 -58 66 -12 19 -24 27 -36 24 -10 -3 -20 1 -23 9 -10 25 -25
15 -35 -23 -13 -48 -16 -230 -6 -305 9 -69 4 -71 -81 -33 -45 20 -59 23 -66
13 -8 -14 -2 -66 14 -107 7 -19 6 -22 -8 -17 -8 3 -19 6 -24 6 -5 0 -22 12
-39 26 -25 21 -34 23 -51 14 -25 -13 -25 -27 -1 -115 11 -38 18 -71 16 -73 -1
-2 -51 -7 -109 -11 -108 -9 -156 -26 -156 -55 0 -34 67 -102 135 -138 38 -20
71 -41 73 -46 1 -5 -10 -15 -25 -21 -15 -7 -38 -20 -50 -30 -21 -18 -63 -79
-63 -93 0 -11 44 -10 74 2 22 8 26 7 26 -8 0 -10 -4 -22 -9 -28 -5 -5 -20 -36
-34 -69 -14 -33 -42 -98 -62 -145 -73 -171 -128 -471 -128 -705 0 -332 73
-602 234 -870 54 -91 98 -137 150 -159 57 -24 64 -37 50 -103 -26 -129 -8
-214 68 -326 60 -90 61 -86 -29 -147 -31 -21 -62 -45 -69 -54 -7 -9 -17 -14
-21 -11 -5 3 -36 -16 -69 -42 -33 -27 -91 -70 -128 -98 -66 -49 -161 -135
-353 -320 -52 -51 -135 -122 -185 -158 -86 -63 -165 -143 -196 -197 -29 -51
-10 -1041 23 -1215 23 -123 39 -143 173 -218 191 -108 173 -101 203 -82 15 10
102 93 193 186 l166 168 6 -112 c7 -115 27 -215 53 -254 7 -12 14 -27 14 -32
0 -9 -58 -52 -195 -145 -27 -18 -66 -53 -85 -77 -40 -51 -48 -92 -49 -262 l-1
-117 28 -13 c15 -6 81 -53 148 -104 146 -110 192 -140 365 -236 237 -131 276
-154 313 -182 20 -15 50 -28 66 -29 17 -1 30 -6 30 -13 0 -15 32 -33 59 -33
12 0 21 -3 21 -7 0 -10 -27 -51 -62 -95 -30 -38 -47 -88 -28 -88 26 0 51 23
74 68 16 31 65 85 143 157 65 61 172 162 239 225 66 63 192 180 280 260 87 80
174 161 194 181 93 95 210 218 350 369 84 91 204 213 266 271 123 115 203 201
276 294 26 33 113 125 194 205 81 80 172 177 203 215 31 39 103 122 161 185
100 109 189 215 255 305 16 22 50 60 75 85 62 62 140 151 152 175 11 19 11 19
-18 0 -71 -45 -206 -171 -266 -248 -95 -119 -94 -119 -106 -55 -6 29 -13 86
-16 126 -4 40 -16 115 -28 165 -19 81 -22 123 -24 352 -1 214 -5 267 -18 299
-18 44 -19 46 -8 46 4 0 23 -23 42 -51 45 -66 133 -146 238 -216 77 -52 84
-54 112 -43 16 6 33 9 39 6 15 -10 70 21 112 61 l36 34 73 -35 c55 -27 77 -33
87 -25 7 6 13 17 13 23 0 6 -56 40 -125 75 -69 36 -133 74 -144 85 -19 21 -19
22 16 94 42 85 145 202 228 256 l54 36 38 -20 c21 -11 43 -20 49 -20 24 0 161
69 209 105 74 55 142 124 156 157 l12 30 13 -39 c17 -49 65 -93 104 -93 44 0
97 51 114 110 8 27 13 57 11 67 -26 132 -27 142 -17 155 6 7 24 29 40 48 37
45 206 296 257 380 41 69 65 101 190 256 44 55 87 111 96 124 l16 25 44 -36
c24 -20 78 -59 119 -88 41 -28 107 -79 145 -112 39 -34 111 -86 160 -116 131
-81 285 -191 325 -234 80 -84 419 -404 466 -439 28 -21 102 -89 165 -152 63
-62 125 -120 139 -129 l24 -16 -45 -53 c-24 -29 -55 -66 -69 -82 -14 -15 -76
-70 -137 -121 -192 -157 -332 -287 -507 -471 -93 -97 -179 -190 -190 -205 -12
-16 -56 -69 -100 -117 -91 -103 -181 -227 -407 -562 -75 -110 -116 -182 -138
-241 -18 -47 -47 -110 -65 -140 -60 -100 -97 -182 -111 -245 -16 -78 -35 -118
-51 -112 -27 10 -26 -18 0 -41 22 -19 31 -21 42 -12 8 6 14 21 14 33 0 12 6
31 14 42 8 11 19 40 26 64 14 50 50 126 120 250 27 47 62 121 79 165 17 44 42
93 55 110 28 35 27 35 151 -51 84 -58 331 -183 500 -254 55 -22 134 -61 176
-85 42 -24 112 -62 155 -83 222 -110 524 -283 524 -301 0 -25 -96 -145 -255
-320 -130 -144 -271 -325 -347 -448 -25 -41 -60 -89 -77 -107 -17 -18 -43 -50
-58 -73 -16 -23 -61 -80 -101 -127 -41 -48 -105 -135 -145 -194 -39 -59 -96
-136 -127 -172 -31 -36 -73 -92 -93 -125 -21 -33 -50 -75 -65 -92 l-28 -32
-47 37 c-25 20 -60 46 -76 57 -17 11 -74 49 -128 86 -147 98 -528 300 -613
324 -14 4 -50 20 -80 35 -31 15 -91 40 -135 55 -44 14 -118 45 -165 67 -47 22
-184 77 -305 123 -312 118 -545 208 -657 254 -53 22 -138 52 -190 66 -51 15
-123 36 -161 46 l-67 20 36 70 c54 103 264 361 490 599 119 126 226 256 340
415 40 55 116 147 170 205 140 151 141 153 148 176 7 24 -310 -294 -344 -346
-53 -78 -212 -263 -344 -401 -328 -339 -546 -622 -546 -707 0 -25 7 -32 68
-60 37 -17 132 -57 212 -88 80 -30 244 -104 365 -163 236 -116 332 -158 632
-276 208 -82 447 -192 545 -251 33 -21 111 -60 172 -88 134 -62 315 -158 374
-198 43 -30 44 -30 76 -13 l33 18 54 -37 c30 -20 69 -48 88 -61 28 -20 42 -24
70 -19 45 8 111 70 153 144 18 30 59 87 92 126 34 38 86 110 116 158 30 48 91
132 135 187 44 55 89 114 100 130 11 17 38 52 61 80 23 27 54 73 69 101 43 79
254 362 339 455 27 30 63 74 80 98 17 24 56 75 87 112 31 38 63 82 72 100 9
17 25 34 34 37 21 7 44 52 37 71 -3 7 -13 11 -23 8 -11 -3 -47 14 -87 39 -94
60 -263 158 -352 202 -40 20 -75 43 -78 50 -8 21 55 401 91 541 18 72 47 165
64 207 40 96 171 309 274 447 43 57 89 124 104 150 15 25 62 96 104 156 87
125 163 254 155 262 -3 3 -38 -2 -78 -11 -40 -8 -149 -27 -243 -41 -205 -31
-462 -80 -528 -102 -27 -8 -50 -13 -53 -11 -4 5 194 192 359 338 114 101 207
202 207 226 0 8 -7 17 -15 21 -9 3 -25 23 -35 44 -25 47 -182 204 -275 274
-38 29 -136 115 -216 191 -329 312 -343 324 -582 468 -59 36 -152 99 -205 141
-53 42 -141 107 -196 146 l-99 70 -30 -28 c-106 -100 -268 -290 -345 -406 -49
-73 -107 -159 -129 -192 -23 -33 -58 -94 -79 -135 -22 -43 -45 -75 -54 -75
-20 0 -23 -38 -11 -124 11 -86 2 -129 -40 -174 l-29 -32 -24 29 c-32 38 -46
90 -46 167 0 78 24 135 71 172 27 21 30 27 15 27 -26 0 -81 -35 -99 -64 -9
-13 -25 -60 -36 -104 -29 -116 -51 -153 -138 -227 -78 -67 -160 -113 -218
-122 -30 -5 -40 2 -137 95 -100 97 -228 252 -262 319 -22 45 -23 70 -1 126 13
36 24 49 44 53 162 35 239 95 256 196 12 70 -50 149 -128 165 l-29 6 8 56 c28
186 -27 720 -101 979 -73 256 -116 374 -185 513 -72 144 -101 279 -77 367 11
41 12 56 2 69 -8 11 -14 13 -19 5 -13 -21 -28 -14 -16 7 15 29 12 81 -10 180
-25 113 -35 137 -59 150 -18 10 -21 6 -35 -42 -9 -28 -23 -60 -30 -71 -13 -16
-15 -9 -14 60 2 123 -11 213 -43 287 -15 37 -34 87 -40 110 -13 50 -120 268
-173 354 -58 93 -70 92 -111 -10 -15 -37 -31 -70 -36 -73 -5 -3 -9 26 -9 64 0
75 -13 100 -40 79 -22 -16 -55 -74 -71 -122 l-13 -40 -6 60 c-4 34 -24 103
-45 158 -34 83 -43 97 -62 97 -15 0 -31 -12 -47 -37z m-16 -598 c-17 -124 -95
-392 -126 -431 -14 -18 -15 -17 -9 11 4 17 11 53 15 80 5 28 26 104 48 170 36
113 51 185 69 350 l8 70 3 -80 c2 -44 -2 -120 -8 -170z m517 -287 c4 -65 2
-98 -5 -98 -15 0 -22 25 -22 78 0 26 -5 66 -10 89 -6 23 -16 88 -25 145 -8 57
-17 119 -20 138 -3 19 13 -30 35 -110 28 -101 42 -174 47 -242z m-1387 325 c0
-16 11 -52 25 -81 30 -64 34 -112 9 -91 -31 25 -54 87 -54 144 0 30 5 55 10
55 6 0 10 -12 10 -27z m-220 -123 c0 -56 -10 -75 -26 -49 -4 6 -7 28 -7 49 0
21 3 43 7 49 16 26 26 7 26 -49z m1661 -72 c8 -35 14 -112 14 -173 0 -143 -25
-247 -92 -384 l-51 -106 -1 45 c-1 25 12 82 28 130 81 241 94 308 81 435 -12
124 -12 115 -1 115 4 0 15 -28 22 -62z m-1351 12 c0 -16 -4 -30 -10 -30 -5 0
-10 14 -10 30 0 17 5 30 10 30 6 0 10 -13 10 -30z m-960 -216 c0 -14 -4 -22
-10 -19 -5 3 -10 17 -10 31 0 14 4 22 10 19 6 -3 10 -17 10 -31z m677 -411
c-3 -10 -5 -4 -5 12 0 17 2 24 5 18 2 -7 2 -21 0 -30z m78 -91 c-9 -10 -13 3
-19 63 l-6 60 15 -59 c8 -33 13 -61 10 -64z m-915 14 c25 -47 22 -69 -5 -46
-20 17 -50 75 -59 115 l-6 30 22 -27 c13 -15 34 -47 48 -72z m70 -7 c0 -5 -6
-9 -14 -9 -15 0 -26 21 -26 48 1 14 5 12 20 -7 11 -13 20 -27 20 -32z m2360
-16 c0 -22 -17 -50 -25 -42 -5 6 14 59 22 59 1 0 3 -8 3 -17z m-94 -140 c-15
-62 -69 -239 -76 -246 -16 -18 -20 47 -5 103 22 85 63 170 82 170 3 0 2 -12
-1 -27z m430 21 c11 -3 25 -17 31 -32 74 -182 102 -266 144 -432 47 -189 60
-261 94 -535 15 -123 26 -566 15 -578 -17 -18 -415 40 -470 68 -51 26 -100
101 -100 152 0 15 -4 34 -9 42 -16 24 -31 1 -31 -47 1 -80 51 -167 125 -212
44 -27 223 -69 344 -81 135 -14 260 -45 288 -71 38 -36 13 -92 -57 -128 -53
-27 -138 -41 -305 -51 -237 -14 -257 -17 -253 -42 5 -34 59 -45 226 -46 83 -1
152 -5 152 -9 0 -22 -121 -186 -216 -294 -72 -82 -104 -126 -104 -143 0 -18
-14 -35 -55 -66 l-54 -41 -30 34 c-16 18 -55 49 -87 68 -56 33 -62 35 -154 35
-105 0 -187 -21 -235 -59 -48 -38 -23 -45 66 -20 101 30 206 32 265 5 22 -10
64 -39 92 -64 45 -40 50 -48 34 -56 -9 -5 -58 -9 -108 -9 -120 0 -178 -30 -90
-46 46 -9 122 -77 137 -124 6 -20 15 -42 20 -47 5 -7 -4 -10 -29 -7 l-37 4 38
-36 c85 -80 99 -215 30 -296 -32 -39 -61 -51 -90 -37 -29 13 -29 28 2 65 26
32 49 81 40 90 -3 3 -21 -13 -40 -35 -19 -23 -59 -55 -89 -72 -30 -16 -58 -36
-63 -43 -4 -7 -6 -89 -5 -183 7 -392 -67 -694 -210 -850 -144 -158 -335 -217
-538 -166 -47 12 -101 29 -121 37 l-37 16 57 92 c100 160 151 303 151 424 0
57 8 63 69 53 65 -10 86 -6 130 27 38 28 82 114 106 207 27 103 41 304 27 385
-10 58 -10 76 2 98 8 16 16 78 19 152 8 148 27 235 67 306 17 28 30 57 30 63
0 17 -39 4 -66 -21 -20 -18 -30 -18 -195 -9 -100 5 -210 6 -259 1 -47 -5 -89
-9 -93 -9 -4 -1 -15 -17 -23 -36 -12 -30 -12 -40 -2 -63 17 -35 40 -39 230
-41 86 0 179 -6 206 -11 l48 -11 -9 -77 c-5 -42 -10 -78 -11 -79 -1 -1 -77
-12 -171 -24 -157 -20 -180 -21 -329 -10 -219 17 -489 61 -615 100 -35 11
-105 45 -157 76 -86 51 -93 58 -83 77 7 14 8 23 1 30 -7 7 -30 -3 -72 -31
-124 -82 -265 -90 -398 -22 -61 31 -104 73 -159 152 l-48 71 0 107 c0 118 16
165 74 214 64 54 170 61 281 18 57 -21 163 -114 175 -153 4 -10 15 -18 26 -18
15 0 19 -7 19 -35 0 -51 15 -43 28 16 14 58 9 72 -13 43 -13 -17 -13 -15 -4
20 8 27 8 41 0 45 -7 5 -5 23 8 56 20 52 35 161 47 329 7 98 7 99 -15 93 -28
-7 -27 7 4 47 31 41 33 61 6 46 -41 -21 -41 -10 2 85 l32 73 110 36 c189 63
382 169 335 184 -8 3 -7 8 1 18 8 10 22 12 43 9 37 -8 229 52 276 85 31 22 39
45 18 53 -22 9 32 44 127 83 50 20 115 53 145 73 30 21 87 55 125 76 39 21 93
55 120 75 28 21 79 52 115 70 78 39 100 57 93 76 -9 24 26 43 57 31 34 -13 60
-4 60 21 0 24 73 66 100 57 14 -5 23 1 34 24 9 16 32 37 53 48 43 21 75 76 93
163 10 47 15 56 33 56 17 -1 24 10 40 64 20 72 36 89 70 83 19 -4 26 1 36 25
13 31 72 63 79 43 2 -5 27 1 55 15 51 23 92 29 133 18z m-827 -210 l-13 -29
-4 29 c-2 15 2 42 10 60 l13 31 3 -31 c2 -16 -3 -43 -9 -60z m-544 -64 c3 -5
-1 -10 -9 -10 -9 0 -16 5 -16 10 0 6 4 10 9 10 6 0 13 -4 16 -10z m-85 -46 c0
-9 -5 -14 -12 -12 -18 6 -21 28 -4 28 9 0 16 -7 16 -16z m-33 -39 c25 -22 26
-24 8 -25 -11 0 -33 11 -50 25 -28 23 -29 24 -8 25 12 0 35 -11 50 -25z m-757
-134 c0 -12 -59 -35 -68 -27 -4 4 2 14 12 22 22 16 56 19 56 5z m-1033 -398
c-9 -9 -19 -14 -23 -11 -10 10 6 28 24 28 15 0 15 -1 -1 -17z m93 6 c0 -15
-39 -69 -51 -69 -15 0 -10 42 8 62 18 20 43 24 43 7z m754 -141 c9 -36 7 -48
-9 -48 -18 0 -38 37 -31 56 8 22 33 17 40 -8z m74 -12 c3 -13 -1 -17 -14 -14
-11 2 -20 11 -22 22 -3 13 1 17 14 14 11 -2 20 -11 22 -22z m-508 -586 c0 -20
-5 -30 -15 -30 -21 0 -30 27 -15 45 19 23 30 18 30 -15z m70 -37 c0 -20 -3
-24 -11 -16 -7 7 -9 19 -6 27 10 24 17 19 17 -11z m3215 -833 c21 -23 21 -22
-20 -43 -16 -8 -58 -38 -93 -66 -50 -41 -67 -50 -87 -45 -39 10 -39 21 3 61
35 34 156 113 173 113 3 0 14 -9 24 -20z m-1737 -137 c-5 -25 -28 -28 -28 -4
0 12 6 21 16 21 9 0 14 -7 12 -17z m1452 -45 l85 -22 -49 -9 c-27 -4 -72 -7
-100 -5 -47 3 -51 5 -54 31 -4 34 6 34 118 5z m4 -135 c-50 -112 -64 -154 -70
-211 -9 -81 -13 -85 -53 -60 -33 21 -33 23 -28 75 4 37 19 78 48 131 50 93 75
122 106 122 l23 0 -26 -57z m-3039 -214 c-79 -80 -154 -143 -162 -135 -10 10
195 196 217 196 2 0 -22 -27 -55 -61z m-470 -119 c69 -15 125 -42 154 -74 l25
-26 -25 -17 c-13 -10 -44 -36 -69 -58 -25 -23 -92 -80 -150 -127 -58 -47 -121
-103 -140 -124 -41 -45 -31 -39 70 43 41 33 95 73 120 88 25 16 70 52 100 80
66 61 109 95 123 95 11 0 2 -383 -13 -558 -6 -63 -8 -209 -5 -325 5 -236 -9
-395 -40 -444 -10 -15 -41 -51 -69 -78 -28 -28 -118 -121 -201 -207 l-150
-157 -7 37 c-4 20 -11 111 -17 202 -5 91 -18 233 -30 315 -11 83 -27 211 -36
285 -36 317 -57 446 -79 476 -11 14 -36 20 -116 29 l-103 10 64 70 c35 39 106
104 159 146 52 41 153 135 224 207 85 86 135 131 145 127 9 -2 38 -9 66 -15z
m6755 -120 c0 -11 -6 -20 -14 -20 -18 0 -29 16 -21 30 11 18 35 11 35 -10z
m48 -68 c2 -7 -6 -12 -17 -12 -21 0 -27 11 -14 24 9 9 26 2 31 -12z m-4834
-400 c-3 -20 -22 -85 -41 -144 -49 -149 -133 -294 -235 -402 l-81 -87 -28 27
-28 27 72 77 c118 125 249 362 303 548 3 10 9 10 24 2 17 -9 20 -17 14 -48z
m-1754 -1190 c19 -148 21 -236 4 -220 -12 13 -45 347 -37 378 3 12 7 19 8 18
2 -2 13 -81 25 -176z m211 -216 c77 -42 371 -114 621 -152 222 -34 242 -36
418 -31 195 6 302 17 412 43 37 9 73 14 80 12 8 -3 -6 -24 -37 -56 l-50 -52
-125 -16 c-76 -10 -201 -17 -320 -18 -171 -1 -215 3 -360 27 -189 33 -271 52
-460 108 -186 56 -229 84 -230 147 0 16 0 16 51 -12z m-204 -231 c28 -38 95
-108 149 -155 53 -47 134 -119 179 -160 45 -41 117 -95 161 -119 43 -25 143
-82 221 -128 78 -46 163 -92 189 -104 l48 -20 -91 -91 -90 -90 -119 67 c-161
92 -266 161 -360 237 -44 35 -131 97 -194 137 -167 107 -198 128 -302 207 -51
38 -101 73 -110 77 -50 19 -5 75 157 197 l90 68 10 -27 c6 -14 33 -57 62 -96z"/>
<path d="M5010 6672 c-50 -27 -102 -115 -98 -167 2 -32 7 -40 23 -40 14 0 24
13 38 50 24 66 58 108 102 129 20 10 34 23 32 29 -6 20 -60 19 -97 -1z"/>
<path d="M5131 6251 c-59 -59 -41 -210 30 -254 25 -16 66 0 91 36 28 39 29 95
4 162 -28 72 -84 97 -125 56z m74 -66 c0 -38 -2 -40 -32 -43 -37 -4 -50 20
-33 62 8 22 15 27 38 24 24 -3 27 -7 27 -43z"/>
<path d="M3985 5978 c-58 -30 -74 -46 -107 -111 -34 -68 -36 -132 -5 -151 23
-13 42 11 69 87 26 74 40 91 107 122 34 16 61 34 61 40 0 39 -64 45 -125 13z"/>
<path d="M4241 5592 c-19 -9 -43 -28 -53 -42 -23 -33 -42 -129 -34 -174 9 -50
67 -106 107 -106 133 0 178 229 63 319 -32 25 -40 26 -83 3z m59 -59 c34 -44
11 -103 -41 -103 -49 0 -67 67 -29 108 27 29 44 28 70 -5z"/>
<path d="M5024 5087 c-83 -86 -208 -125 -360 -114 -84 6 -139 27 -176 68 -31
33 -40 35 -59 13 -11 -13 -10 -21 6 -50 10 -18 28 -40 40 -48 41 -27 137 -48
214 -48 190 1 330 66 376 174 26 63 16 65 -41 5z"/>
<path d="M2453 4903 c-34 -7 -81 -59 -89 -98 -13 -73 46 -157 122 -171 69 -13
144 28 144 78 0 24 -19 23 -48 -4 -17 -17 -36 -23 -69 -23 -38 0 -49 5 -74 33
-36 40 -38 81 -5 118 28 34 84 38 116 9 24 -21 35 -15 25 14 -10 33 -70 54
-122 44z"/>
<path d="M1836 3363 c-8 -21 8 -38 29 -29 13 4 14 10 5 26 -13 24 -26 26 -34
3z"/>
<path d="M8270 6399 c0 -14 5 -19 17 -17 26 5 29 38 4 38 -15 0 -21 -6 -21
-21z"/>
<path d="M8145 6306 c-32 -15 -76 -51 -124 -102 -41 -44 -167 -172 -279 -287
-113 -114 -202 -210 -199 -213 8 -8 83 36 138 82 98 80 227 206 347 336 69 75
138 142 154 149 25 10 48 36 48 53 0 13 -37 5 -85 -18z"/>
<path d="M8732 6167 c-24 -29 -18 -40 26 -43 32 -1 45 2 49 13 12 31 -53 57
-75 30z"/>
<path d="M7085 5420 c56 -60 378 -320 396 -320 16 0 9 16 -18 42 -16 14 -89
71 -163 127 -74 55 -162 122 -195 148 l-60 46 40 -43z"/>
<path d="M8396 5415 c-3 -9 1 -18 10 -22 19 -7 28 2 21 22 -8 19 -23 19 -31 0z"/>
<path d="M6858 5328 c-7 -18 2 -39 13 -32 5 3 9 -4 9 -15 0 -14 6 -21 20 -21
31 0 35 27 9 55 -26 27 -44 32 -51 13z"/>
<path d="M8433 5304 c-8 -22 15 -43 27 -24 5 8 10 21 10 28 0 17 -30 15 -37
-4z"/>
<path d="M6925 5240 c-4 -6 5 -10 19 -10 16 0 26 -6 26 -14 0 -8 9 -17 19 -21
11 -3 22 -12 25 -20 3 -8 12 -15 19 -15 8 0 28 -12 44 -27 39 -35 82 -66 106
-75 14 -6 18 -4 15 10 -3 18 -95 86 -140 103 -16 6 -28 17 -28 25 0 8 -5 14
-11 14 -6 0 -22 9 -36 20 -28 22 -48 25 -58 10z"/>
<path d="M6395 5202 l-30 -17 29 -3 c39 -5 78 6 73 21 -6 19 -39 18 -72 -1z"/>
<path d="M6720 5127 c0 -5 6 -15 14 -23 8 -7 16 -19 19 -26 2 -7 7 -10 11 -7
4 4 -4 20 -18 35 -14 16 -26 25 -26 21z"/>
<path d="M7610 5006 c0 -2 8 -10 18 -17 15 -13 16 -12 3 4 -13 16 -21 21 -21
13z"/>
<path d="M7269 4982 c14 -25 29 -36 80 -56 24 -9 53 -28 63 -42 11 -13 28 -24
38 -24 11 0 27 -11 36 -25 19 -29 250 -225 265 -225 21 0 3 18 -105 105 -61
49 -129 106 -152 128 -23 22 -79 66 -124 98 -85 61 -119 75 -101 41z"/>
<path d="M6921 4940 c20 -24 42 -46 49 -48 19 -7 -39 67 -64 80 -15 8 -11 -1
15 -32z"/>
<path d="M7680 4944 c19 -23 48 -57 63 -78 28 -36 67 -49 67 -22 0 7 -12 22
-27 31 -16 10 -53 39 -83 64 l-55 46 35 -41z"/>
<path d="M6667 4853 c112 -99 193 -160 193 -146 0 9 -54 52 -165 131 -33 24
-46 31 -28 15z"/>
<path d="M7979 4667 c18 -27 35 -46 38 -44 7 8 -13 40 -43 67 -26 24 -26 23 5
-23z"/>
<path d="M6555 4650 c10 -11 20 -18 23 -15 7 6 -18 35 -31 35 -5 0 -2 -9 8
-20z"/>
<path d="M7325 4628 c17 -13 53 -46 80 -74 28 -28 76 -70 107 -93 65 -48 101
-52 53 -5 -51 48 -198 160 -235 178 l-35 17 30 -23z"/>
<path d="M6590 4625 c0 -3 26 -22 58 -42 31 -20 102 -80 157 -133 55 -53 132
-121 170 -150 39 -30 101 -83 140 -117 61 -56 105 -79 105 -55 0 19 -154 152
-270 234 -36 25 -78 60 -95 78 -46 49 -265 202 -265 185z"/>
<path d="M6979 4601 c9 -16 51 -37 51 -24 0 17 -24 43 -41 43 -16 0 -18 -3
-10 -19z"/>
<path d="M6031 4502 c-30 -39 -107 -162 -225 -359 -68 -112 -189 -334 -235
-428 -42 -87 -46 -111 -20 -132 29 -25 130 -151 189 -237 89 -128 144 -202
188 -251 40 -45 43 -47 60 -31 28 25 38 20 82 -39 22 -30 56 -67 75 -82 20
-15 70 -70 113 -122 42 -52 115 -136 161 -185 46 -50 90 -102 99 -116 8 -14
25 -41 37 -60 71 -116 114 -173 151 -199 41 -29 54 -30 54 -6 0 7 -28 55 -62
107 -35 52 -74 114 -88 137 -14 24 -55 78 -93 120 -37 42 -100 114 -139 161
-40 47 -116 130 -168 186 -116 123 -310 345 -407 468 -98 123 -137 164 -178
183 l-35 17 24 40 c13 23 51 93 84 156 33 63 94 180 137 260 134 251 237 451
234 455 -2 1 -19 -18 -38 -43z"/>
<path d="M7923 4492 c-10 -7 -10 -12 1 -28 12 -15 17 -17 27 -6 11 10 10 15
-1 27 -9 8 -20 11 -27 7z"/>
<path d="M7180 4450 c10 -20 24 -31 93 -75 59 -39 56 -30 -14 35 -65 61 -100
79 -79 40z"/>
<path d="M6578 4384 c10 -19 47 -56 69 -68 28 -16 0 23 -39 54 -26 21 -37 26
-30 14z"/>
<path d="M7750 4300 c0 -5 5 -10 11 -10 5 0 7 5 4 10 -3 6 -8 10 -11 10 -2 0
-4 -4 -4 -10z"/>
<path d="M6352 4270 c7 -10 14 -18 15 -16 6 6 -9 36 -18 36 -5 0 -4 -9 3 -20z"/>
<path d="M7425 4260 c3 -5 8 -10 11 -10 2 0 4 5 4 10 0 6 -5 10 -11 10 -5 0
-7 -4 -4 -10z"/>
<path d="M6795 4159 c72 -74 388 -329 408 -329 4 0 0 12 -10 26 -23 35 -138
132 -242 202 -46 31 -106 76 -132 100 -60 54 -75 55 -24 1z"/>
<path d="M6489 4154 c13 -17 62 -67 109 -110 48 -43 78 -67 67 -54 -51 65
-214 216 -176 164z"/>
<path d="M7622 4116 c1 -10 8 -17 13 -17 15 1 12 24 -3 29 -9 3 -13 -2 -10
-12z"/>
<path d="M6220 4082 c0 -7 18 -32 40 -55 22 -23 40 -36 40 -29 0 7 -18 32 -40
55 -22 23 -40 36 -40 29z"/>
<path d="M7430 3962 c0 -12 34 -42 48 -42 19 0 14 28 -7 40 -24 12 -41 13 -41
2z"/>
<path d="M6372 3921 c8 -14 46 -44 84 -67 38 -23 78 -57 90 -75 12 -19 32 -43
44 -54 l23 -20 -11 20 c-24 46 -98 118 -146 141 -28 14 -62 38 -75 52 -22 25
-23 25 -9 3z"/>
<path d="M6160 3856 c0 -20 54 -74 78 -79 19 -4 71 -55 178 -174 83 -92 164
-184 180 -203 15 -19 56 -64 89 -100 34 -36 97 -103 141 -150 83 -89 94 -99
94 -81 0 6 -4 11 -10 11 -5 0 -10 7 -10 15 0 8 -42 61 -93 118 -50 56 -123
138 -161 182 -107 124 -313 331 -391 393 -96 76 -95 75 -95 68z"/>
<path d="M7270 3772 c0 -10 41 -35 47 -28 9 8 -17 36 -33 36 -8 0 -14 -3 -14
-8z"/>
<path d="M6980 3720 c36 -53 179 -197 201 -203 14 -4 8 8 -23 45 -24 27 -51
61 -60 76 -9 14 -33 36 -53 48 -20 11 -48 32 -62 45 l-27 24 24 -35z"/>
<path d="M6007 3666 c12 -23 110 -129 303 -330 152 -158 251 -276 296 -352 14
-24 35 -49 45 -55 16 -8 14 0 -12 48 -46 84 -96 148 -183 238 -43 43 -92 98
-109 122 -17 24 -46 51 -65 60 -18 9 -66 54 -107 102 -80 94 -183 197 -168
167z"/>
<path d="M6640 3677 c0 -2 15 -16 33 -33 l32 -29 -29 33 c-28 30 -36 37 -36
29z"/>
<path d="M6825 3501 c28 -29 59 -57 70 -63 26 -14 -51 68 -90 94 -21 15 -14 5
20 -31z"/>
<path d="M5705 3160 c-82 -29 -127 -51 -465 -230 -457 -241 -573 -312 -578
-353 -4 -36 14 -67 41 -67 41 0 185 56 274 108 49 27 129 70 178 95 50 25 139
74 198 109 173 103 217 127 322 182 140 72 201 136 163 174 -17 17 -43 14
-133 -18z m115 -9 c0 -7 -39 -33 -155 -102 l-30 -18 -11 34 -11 34 86 30 c90
31 121 37 121 22z m-215 -132 c-11 -17 -22 -9 -32 26 -8 25 -8 35 1 38 13 5
39 -49 31 -64z m-859 -445 c-7 -19 -56 -19 -56 0 0 8 10 22 22 30 20 14 23 14
31 0 5 -8 6 -22 3 -30z"/>
<path d="M6730 2844 c0 -17 17 -36 24 -26 3 5 -1 15 -9 22 -8 7 -15 9 -15 4z"/>
<path d="M7150 2450 c0 -5 5 -10 10 -10 6 0 10 5 10 10 0 6 -4 10 -10 10 -5 0
-10 -4 -10 -10z"/>
<path d="M7410 2345 c-8 -9 -8 -15 -2 -15 12 0 26 19 19 26 -2 2 -10 -2 -17
-11z"/>
<path d="M7060 2307 c-13 -23 -31 -48 -39 -55 -14 -11 -14 -11 1 -6 16 5 72
93 65 100 -2 2 -14 -15 -27 -39z"/>
<path d="M7498 2038 c-64 -95 -124 -189 -133 -208 -10 -19 -37 -66 -60 -105
-23 -38 -45 -81 -50 -95 -4 -14 -23 -54 -42 -90 l-34 -65 40 45 c23 25 41 50
41 57 0 28 103 211 239 426 79 125 126 207 118 207 -2 0 -56 -78 -119 -172z"/>
<path d="M7282 2151 c-34 -52 -40 -74 -18 -65 14 6 62 101 54 109 -2 3 -19
-17 -36 -44z"/>
<path d="M4545 2181 c-3 -5 -1 -12 5 -16 5 -3 10 1 10 9 0 18 -6 21 -15 7z"/>
<path d="M4604 2106 c-23 -20 -27 -27 -17 -37 21 -21 68 1 68 30 0 34 -18 36
-51 7z"/>
<path d="M7093 1903 c-10 -15 -23 -42 -29 -60 l-12 -33 34 35 c19 20 34 40 34
45 0 5 3 15 6 24 10 26 -14 18 -33 -11z"/>
<path d="M6771 1823 c-10 -26 -10 -27 4 -9 8 11 15 23 15 28 0 15 -7 8 -19
-19z"/>
<path d="M7646 1825 c-9 -26 -7 -32 5 -12 6 10 9 21 6 23 -2 3 -7 -2 -11 -11z"/>
<path d="M6702 1757 c-9 -11 -10 -17 -2 -22 15 -9 23 -1 18 21 -3 15 -4 16
-16 1z"/>
<path d="M7836 1650 c-20 -22 -53 -75 -73 -118 -20 -42 -40 -86 -46 -97 -10
-19 -9 -19 10 -2 12 10 36 46 54 80 18 34 48 86 67 115 18 30 32 56 29 58 -2
3 -21 -14 -41 -36z"/>
<path d="M7534 1603 c-15 -27 -41 -75 -57 -107 -15 -32 -43 -82 -61 -110 -18
-28 -35 -60 -39 -71 -12 -34 38 28 83 104 36 60 113 231 105 231 -2 0 -16 -21
-31 -47z"/>
<path d="M6650 1220 c-12 -16 -19 -30 -16 -30 2 0 14 14 26 30 12 17 19 30 16
30 -2 0 -14 -13 -26 -30z"/>
<path d="M7511 1133 c-72 -82 -141 -176 -141 -192 0 -23 83 73 116 134 15 28
38 62 52 78 14 15 23 27 20 27 -3 0 -24 -21 -47 -47z"/>
<path d="M7218 1062 c-52 -54 -77 -96 -65 -109 3 -3 12 3 21 14 8 10 35 42 60
72 39 46 57 81 43 81 -2 0 -29 -26 -59 -58z"/>
<path d="M6916 1060 l-18 -35 22 21 c12 12 20 28 18 35 -3 9 -12 0 -22 -21z"/>
<path d="M5004 579 c-10 -17 13 -36 27 -22 12 12 4 33 -11 33 -5 0 -12 -5 -16
-11z"/>
</g>
</svg>
