<svg width="20" height="20" viewBox="0 0 20 20" fill="none" xmlns="http://www.w3.org/2000/svg">
<path d="M7 10C5.67392 10 4.40215 9.47322 3.46447 8.53553C2.52678 7.59785 2 6.32608 2 5C2 3.67392 2.52678 2.40215 3.46447 1.46447C4.40215 0.526784 5.67392 0 7 0C8.32608 0 9.59785 0.526784 10.5355 1.46447C11.4732 2.40215 12 3.67392 12 5C12 6.32608 11.4732 7.59785 10.5355 8.53553C9.59785 9.47322 8.32608 10 7 10ZM7 8C7.39397 8 7.78407 7.9224 8.14805 7.77164C8.51203 7.62087 8.84274 7.3999 9.12132 7.12132C9.3999 6.84274 9.62087 6.51203 9.77164 6.14805C9.9224 5.78407 10 5.39397 10 5C10 4.60603 9.9224 4.21593 9.77164 3.85195C9.62087 3.48797 9.3999 3.15726 9.12132 2.87868C8.84274 2.6001 8.51203 2.37913 8.14805 2.22836C7.78407 2.0776 7.39397 2 7 2C6.20435 2 5.44129 2.31607 4.87868 2.87868C4.31607 3.44129 4 4.20435 4 5C4 5.79565 4.31607 6.55871 4.87868 7.12132C5.44129 7.68393 6.20435 8 7 8ZM14 19C14 19.2652 13.8946 19.5196 13.7071 19.7071C13.5196 19.8946 13.2652 20 13 20C12.7348 20 12.4804 19.8946 12.2929 19.7071C12.1054 19.5196 12 19.2652 12 19V17C12 16.2044 11.6839 15.4413 11.1213 14.8787C10.5587 14.3161 9.79565 14 9 14H5C4.20435 14 3.44129 14.3161 2.87868 14.8787C2.31607 15.4413 2 16.2044 2 17V19C2 19.2652 1.89464 19.5196 1.70711 19.7071C1.51957 19.8946 1.26522 20 1 20C0.734784 20 0.48043 19.8946 0.292893 19.7071C0.105357 19.5196 0 19.2652 0 19V17C0 15.6739 0.526784 14.4021 1.46447 13.4645C2.40215 12.5268 3.67392 12 5 12H9C10.3261 12 11.5979 12.5268 12.5355 13.4645C13.4732 14.4021 14 15.6739 14 17V19ZM15 14C14.7348 14 14.4804 13.8946 14.2929 13.7071C14.1054 13.5196 14 13.2652 14 13C14 12.7348 14.1054 12.4804 14.2929 12.2929C14.4804 12.1054 14.7348 12 15 12C16.3261 12 17.5979 12.5268 18.5355 13.4645C19.4732 14.4021 20 15.6739 20 17V19C20 19.2652 19.8946 19.5196 19.7071 19.7071C19.5196 19.8946 19.2652 20 19 20C18.7348 20 18.4804 19.8946 18.2929 19.7071C18.1054 19.5196 18 19.2652 18 19V17C18 16.2044 17.6839 15.4413 17.1213 14.8787C16.5587 14.3161 15.7956 14 15 14ZM13 10C12.7348 10 12.4804 9.89464 12.2929 9.70711C12.1054 9.51957 12 9.26522 12 9C12 8.73478 12.1054 8.48043 12.2929 8.29289C12.4804 8.10536 12.7348 8 13 8C13.7956 8 14.5587 7.68393 15.1213 7.12132C15.6839 6.55871 16 5.79565 16 5C16 4.20435 15.6839 3.44129 15.1213 2.87868C14.5587 2.31607 13.7956 2 13 2C12.7348 2 12.4804 1.89464 12.2929 1.70711C12.1054 1.51957 12 1.26522 12 1C12 0.734784 12.1054 0.48043 12.2929 0.292893C12.4804 0.105357 12.7348 0 13 0C14.3261 0 15.5979 0.526784 16.5355 1.46447C17.4732 2.40215 18 3.67392 18 5C18 6.32608 17.4732 7.59785 16.5355 8.53553C15.5979 9.47322 14.3261 10 13 10Z" fill="white"/>
</svg>
