<svg width="176" height="30" viewBox="0 0 176 30" fill="none" xmlns="http://www.w3.org/2000/svg">
<path d="M46.494 21V8.4H52.218C53.586 8.4 54.792 8.664 55.836 9.192C56.88 9.708 57.696 10.434 58.284 11.37C58.872 12.306 59.166 13.416 59.166 14.7C59.166 15.972 58.872 17.082 58.284 18.03C57.696 18.966 56.88 19.698 55.836 20.226C54.792 20.742 53.586 21 52.218 21H46.494ZM49.41 18.606H52.074C52.914 18.606 53.64 18.45 54.252 18.138C54.876 17.814 55.356 17.358 55.692 16.77C56.04 16.182 56.214 15.492 56.214 14.7C56.214 13.896 56.04 13.206 55.692 12.63C55.356 12.042 54.876 11.592 54.252 11.28C53.64 10.956 52.914 10.794 52.074 10.794H49.41V18.606ZM61.1671 21V11.316H63.9751V21H61.1671ZM62.5711 9.966C62.0551 9.966 61.6351 9.816 61.3111 9.516C60.9871 9.216 60.8251 8.844 60.8251 8.4C60.8251 7.956 60.9871 7.584 61.3111 7.284C61.6351 6.984 62.0551 6.834 62.5711 6.834C63.0871 6.834 63.5071 6.978 63.8311 7.266C64.1551 7.542 64.3171 7.902 64.3171 8.346C64.3171 8.814 64.1551 9.204 63.8311 9.516C63.5191 9.816 63.0991 9.966 62.5711 9.966ZM71.1352 24.636C70.2232 24.636 69.3412 24.522 68.4892 24.294C67.6492 24.078 66.9472 23.748 66.3832 23.304L67.4992 21.288C67.9072 21.624 68.4232 21.888 69.0472 22.08C69.6832 22.284 70.3072 22.386 70.9192 22.386C71.9152 22.386 72.6352 22.164 73.0792 21.72C73.5352 21.276 73.7632 20.616 73.7632 19.74V18.282L73.9432 15.852L73.9072 13.404V11.316H76.5712V19.38C76.5712 21.18 76.1032 22.506 75.1672 23.358C74.2312 24.21 72.8872 24.636 71.1352 24.636ZM70.7032 20.532C69.8032 20.532 68.9872 20.34 68.2552 19.956C67.5352 19.56 66.9532 19.014 66.5092 18.318C66.0772 17.61 65.8612 16.788 65.8612 15.852C65.8612 14.904 66.0772 14.082 66.5092 13.386C66.9532 12.678 67.5352 12.132 68.2552 11.748C68.9872 11.364 69.8032 11.172 70.7032 11.172C71.5192 11.172 72.2392 11.34 72.8632 11.676C73.4872 12 73.9732 12.51 74.3212 13.206C74.6692 13.89 74.8432 14.772 74.8432 15.852C74.8432 16.92 74.6692 17.802 74.3212 18.498C73.9732 19.182 73.4872 19.692 72.8632 20.028C72.2392 20.364 71.5192 20.532 70.7032 20.532ZM71.2612 18.228C71.7532 18.228 72.1912 18.132 72.5752 17.94C72.9592 17.736 73.2592 17.454 73.4752 17.094C73.6912 16.734 73.7992 16.32 73.7992 15.852C73.7992 15.372 73.6912 14.958 73.4752 14.61C73.2592 14.25 72.9592 13.974 72.5752 13.782C72.1912 13.578 71.7532 13.476 71.2612 13.476C70.7692 13.476 70.3312 13.578 69.9472 13.782C69.5632 13.974 69.2572 14.25 69.0292 14.61C68.8132 14.958 68.7052 15.372 68.7052 15.852C68.7052 16.32 68.8132 16.734 69.0292 17.094C69.2572 17.454 69.5632 17.736 69.9472 17.94C70.3312 18.132 70.7692 18.228 71.2612 18.228ZM79.1847 21V11.316H81.9927V21H79.1847ZM80.5887 9.966C80.0727 9.966 79.6527 9.816 79.3287 9.516C79.0047 9.216 78.8427 8.844 78.8427 8.4C78.8427 7.956 79.0047 7.584 79.3287 7.284C79.6527 6.984 80.0727 6.834 80.5887 6.834C81.1047 6.834 81.5247 6.978 81.8487 7.266C82.1727 7.542 82.3347 7.902 82.3347 8.346C82.3347 8.814 82.1727 9.204 81.8487 9.516C81.5367 9.816 81.1167 9.966 80.5887 9.966ZM88.5587 21.144C87.4187 21.144 86.5307 20.856 85.8947 20.28C85.2587 19.692 84.9407 18.822 84.9407 17.67V9.174H87.7487V17.634C87.7487 18.042 87.8567 18.36 88.0727 18.588C88.2887 18.804 88.5827 18.912 88.9547 18.912C89.3987 18.912 89.7767 18.792 90.0887 18.552L90.8447 20.532C90.5567 20.736 90.2087 20.892 89.8007 21C89.4047 21.096 88.9907 21.144 88.5587 21.144ZM83.4467 13.692V11.532H90.1607V13.692H83.4467ZM98.361 21V19.11L98.181 18.696V15.312C98.181 14.712 97.995 14.244 97.623 13.908C97.263 13.572 96.705 13.404 95.949 13.404C95.433 13.404 94.923 13.488 94.419 13.656C93.927 13.812 93.507 14.028 93.159 14.304L92.151 12.342C92.679 11.97 93.315 11.682 94.059 11.478C94.803 11.274 95.559 11.172 96.327 11.172C97.803 11.172 98.949 11.52 99.765 12.216C100.581 12.912 100.989 13.998 100.989 15.474V21H98.361ZM95.409 21.144C94.653 21.144 94.005 21.018 93.465 20.766C92.925 20.502 92.511 20.148 92.223 19.704C91.935 19.26 91.791 18.762 91.791 18.21C91.791 17.634 91.929 17.13 92.205 16.698C92.493 16.266 92.943 15.93 93.555 15.69C94.167 15.438 94.965 15.312 95.949 15.312H98.523V16.95H96.255C95.595 16.95 95.139 17.058 94.887 17.274C94.647 17.49 94.527 17.76 94.527 18.084C94.527 18.444 94.665 18.732 94.941 18.948C95.229 19.152 95.619 19.254 96.111 19.254C96.579 19.254 96.999 19.146 97.371 18.93C97.743 18.702 98.013 18.372 98.181 17.94L98.613 19.236C98.409 19.86 98.037 20.334 97.497 20.658C96.957 20.982 96.261 21.144 95.409 21.144ZM103.53 21V7.644H106.338V21H103.53ZM112.584 21L118.2 8.4H121.08L126.714 21H123.654L119.046 9.876H120.198L115.572 21H112.584ZM115.392 18.3L116.166 16.086H122.646L123.438 18.3H115.392ZM131.893 21.144C130.981 21.144 130.159 20.94 129.427 20.532C128.695 20.112 128.113 19.53 127.681 18.786C127.261 18.042 127.051 17.166 127.051 16.158C127.051 15.138 127.261 14.256 127.681 13.512C128.113 12.768 128.695 12.192 129.427 11.784C130.159 11.376 130.981 11.172 131.893 11.172C132.709 11.172 133.423 11.352 134.035 11.712C134.647 12.072 135.121 12.618 135.457 13.35C135.793 14.082 135.961 15.018 135.961 16.158C135.961 17.286 135.799 18.222 135.475 18.966C135.151 19.698 134.683 20.244 134.071 20.604C133.471 20.964 132.745 21.144 131.893 21.144ZM132.379 18.84C132.835 18.84 133.249 18.732 133.621 18.516C133.993 18.3 134.287 17.994 134.503 17.598C134.731 17.19 134.845 16.71 134.845 16.158C134.845 15.594 134.731 15.114 134.503 14.718C134.287 14.322 133.993 14.016 133.621 13.8C133.249 13.584 132.835 13.476 132.379 13.476C131.911 13.476 131.491 13.584 131.119 13.8C130.747 14.016 130.447 14.322 130.219 14.718C130.003 15.114 129.895 15.594 129.895 16.158C129.895 16.71 130.003 17.19 130.219 17.598C130.447 17.994 130.747 18.3 131.119 18.516C131.491 18.732 131.911 18.84 132.379 18.84ZM134.917 21V19.02L134.971 16.14L134.791 13.278V7.644H137.599V21H134.917ZM152.6 11.172C153.368 11.172 154.046 11.328 154.634 11.64C155.234 11.94 155.702 12.408 156.038 13.044C156.386 13.668 156.56 14.472 156.56 15.456V21H153.752V15.888C153.752 15.108 153.59 14.532 153.266 14.16C152.942 13.788 152.486 13.602 151.898 13.602C151.49 13.602 151.124 13.698 150.8 13.89C150.476 14.07 150.224 14.346 150.044 14.718C149.864 15.09 149.774 15.564 149.774 16.14V21H146.966V15.888C146.966 15.108 146.804 14.532 146.48 14.16C146.168 13.788 145.718 13.602 145.13 13.602C144.722 13.602 144.356 13.698 144.032 13.89C143.708 14.07 143.456 14.346 143.276 14.718C143.096 15.09 143.006 15.564 143.006 16.14V21H140.198V11.316H142.88V13.962L142.376 13.188C142.712 12.528 143.186 12.03 143.798 11.694C144.422 11.346 145.13 11.172 145.922 11.172C146.81 11.172 147.584 11.4 148.244 11.856C148.916 12.3 149.36 12.984 149.576 13.908L148.586 13.638C148.91 12.882 149.426 12.282 150.134 11.838C150.854 11.394 151.676 11.172 152.6 11.172ZM159.077 21V11.316H161.885V21H159.077ZM160.481 9.966C159.965 9.966 159.545 9.816 159.221 9.516C158.897 9.216 158.735 8.844 158.735 8.4C158.735 7.956 158.897 7.584 159.221 7.284C159.545 6.984 159.965 6.834 160.481 6.834C160.997 6.834 161.417 6.978 161.741 7.266C162.065 7.542 162.227 7.902 162.227 8.346C162.227 8.814 162.065 9.204 161.741 9.516C161.429 9.816 161.009 9.966 160.481 9.966ZM170.377 11.172C171.145 11.172 171.829 11.328 172.429 11.64C173.041 11.94 173.521 12.408 173.869 13.044C174.217 13.668 174.391 14.472 174.391 15.456V21H171.583V15.888C171.583 15.108 171.409 14.532 171.061 14.16C170.725 13.788 170.245 13.602 169.621 13.602C169.177 13.602 168.775 13.698 168.415 13.89C168.067 14.07 167.791 14.352 167.587 14.736C167.395 15.12 167.299 15.612 167.299 16.212V21H164.491V11.316H167.173V13.998L166.669 13.188C167.017 12.54 167.515 12.042 168.163 11.694C168.811 11.346 169.549 11.172 170.377 11.172Z" fill="white"/>
<path fill-rule="evenodd" clip-rule="evenodd" d="M4.32394 23.8904C4.6901 24.2315 5.22327 24.3227 5.68107 24.1204C6.13926 23.9221 6.43558 23.4698 6.43558 22.97C6.43717 19.8876 6.43718 15.3137 6.43718 15.3137C6.43718 14.4052 7.17386 13.6713 8.08072 13.6713C8.98758 13.6713 9.72425 14.4052 9.72425 15.3137V27.9327C10.5371 28.385 11.3503 28.7658 12.164 29.0712V9.73205C12.164 8.82757 12.9002 8.08975 13.8071 8.08975C14.7144 8.08975 15.4506 8.82757 15.4506 9.73205V29.9004C16.2639 29.9996 17.0771 30.0273 17.8903 29.9718V18.761C17.8903 17.8525 18.6266 17.1147 19.5335 17.1147C20.4407 17.1147 21.177 17.8525 21.177 18.761V29.3212C21.9899 29.0474 22.8031 28.6984 23.6167 28.262V13.9173C23.6167 13.0128 24.353 12.2749 25.2603 12.2749C26.1671 12.2749 26.9034 13.0128 26.9034 13.9173V23.1882C26.9034 23.696 27.2093 24.1522 27.679 24.3505C28.1487 24.5449 28.6898 24.4378 29.05 24.0768C29.8053 23.3112 30.5626 22.4741 31.3195 21.5538C34.0147 18.8602 34.0147 14.4846 31.3195 11.787L21.5535 2.0202C18.8583 -0.673401 14.4823 -0.673401 11.7875 2.0202L2.02109 11.787C-0.673698 14.4846 -0.673698 18.8602 2.02109 21.5538C2.78871 22.3908 3.55633 23.1723 4.32394 23.8904Z" fill="white"/>
</svg>
