<svg width="16" height="22" viewBox="0 0 16 22" fill="none" xmlns="http://www.w3.org/2000/svg">
<path d="M8.32131 -3.05176e-05C5.12981 -3.05176e-05 2.53306 2.59672 2.53306 5.78822V9.07797C1.52011 9.27451 0.752365 10.166 0.752365 11.2356V19.8C0.752365 21.0131 1.73921 22 2.95237 22H13.6903C14.9034 22 15.8903 21.0131 15.8903 19.8V11.2356C15.8903 10.166 15.1225 9.27451 14.1096 9.07797V5.78822C14.1096 2.59672 11.5128 -3.05176e-05 8.32131 -3.05176e-05ZM3.99973 5.78822C3.99973 3.40524 5.93834 1.46664 8.32131 1.46664C10.7043 1.46664 12.6429 3.40524 12.6429 5.78822V9.03558H3.99973V5.78822ZM14.4236 11.2356V19.8C14.4236 20.2042 14.0945 20.5333 13.6903 20.5333H2.95237C2.5481 20.5333 2.21903 20.2042 2.21903 19.8V11.2356C2.21903 10.8313 2.5481 10.5022 2.95237 10.5022H3.26639H13.3762H13.6903C14.0945 10.5022 14.4236 10.8313 14.4236 11.2356Z" fill="white"/>
<path d="M8.32132 12.2998C6.87005 12.2998 5.68912 13.4807 5.68912 14.932C5.68912 16.127 6.49487 17.1271 7.58798 17.4469V18.0028C7.58798 18.4078 7.91633 18.7361 8.32132 18.7361C8.7263 18.7361 9.05465 18.4078 9.05465 18.0028V17.4469C10.1478 17.127 10.9535 16.127 10.9535 14.932C10.9535 13.4807 9.77258 12.2998 8.32132 12.2998ZM8.32132 16.0971C7.67858 16.0971 7.15578 15.5743 7.15578 14.932C7.15578 14.2892 7.67857 13.7664 8.32132 13.7664C8.96406 13.7664 9.48685 14.2892 9.48685 14.932C9.48685 15.5743 8.96405 16.0971 8.32132 16.0971Z" fill="white"/>
</svg>
