<svg width="20" height="23" viewBox="0 0 20 23" fill="none" xmlns="http://www.w3.org/2000/svg">
<path fill-rule="evenodd" clip-rule="evenodd" d="M10 0C9.735 0 9.47465 0.0693141 9.24476 0.20102L5.03441 2.56935C5.01585 2.57881 4.99765 2.58904 4.97986 2.60003L0.786337 4.95888L0.783605 4.96043C0.57819 5.07708 0.402619 5.23895 0.26988 5.43321C0.245447 5.46442 0.223117 5.49793 0.203211 5.53364C0.190108 5.55715 0.178369 5.58105 0.167968 5.60525C0.0590081 5.81966 0.00130736 6.05692 1.10956e-05 6.29827L0 6.3024V15.7832L1.10956e-05 15.7873C0.00147306 16.0595 0.0746818 16.3265 0.212256 16.5614C0.34983 16.7963 0.546904 16.9907 0.783605 17.1251L0.786337 17.1267L9.24479 21.8846C9.47466 22.0163 9.73501 22.0856 10 22.0856C10.265 22.0856 10.5253 22.0163 10.7552 21.8846L19.2137 17.1267L19.2164 17.1251C19.4531 16.9907 19.6502 16.7963 19.7877 16.5614C19.9253 16.3265 19.9985 16.0595 20 15.7873L20 15.7832V6.3024L20 6.29827C19.9987 6.05799 19.9415 5.82176 19.8335 5.60809C19.822 5.58105 19.8088 5.55438 19.7939 5.52821C19.7744 5.49374 19.7525 5.46137 19.7287 5.43116C19.5961 5.23781 19.4211 5.07667 19.2164 4.96043L19.2137 4.95888L10.7552 0.201019C10.5254 0.0693143 10.265 0 10 0ZM1.53846 15.7795V7.15859L9.31344 11.4925L9.24076 20.1172L1.54332 15.7874L1.54303 15.7872C1.54169 15.7864 1.54057 15.7852 1.53977 15.7838C1.53898 15.7825 1.53854 15.781 1.53846 15.7795ZM10.7794 20.1058L18.4567 15.7874L18.457 15.7872C18.4583 15.7864 18.4594 15.7852 18.4602 15.7838C18.461 15.7825 18.4615 15.781 18.4615 15.7795V7.16982L15.4808 8.86315V13.3985C15.4808 13.8234 15.1364 14.1678 14.7115 14.1678C14.2867 14.1678 13.9423 13.8234 13.9423 13.3985V9.73712L10.852 11.4927L10.7794 20.1058ZM10.0831 10.1601L13.1519 8.41679L5.38885 4.13512L2.34539 5.84706L10.0831 10.1601ZM17.665 5.85292L14.7211 7.52533L6.96594 3.24801L10 1.54135L17.665 5.85292Z" fill="white"/>
</svg>
