<svg width="20" height="20" viewBox="0 0 20 20" fill="none" xmlns="http://www.w3.org/2000/svg">
<path d="M10 5.99992C9.73478 5.99992 9.48043 6.10527 9.29289 6.29281C9.10536 6.48034 9 6.73469 9 6.9999V10.9998C9 11.2651 9.10536 11.5194 9.29289 11.7069C9.48043 11.8945 9.73478 11.9998 10 11.9998C10.2652 11.9998 10.5196 11.8945 10.7071 11.7069C10.8946 11.5194 11 11.2651 11 10.9998V6.9999C11 6.73469 10.8946 6.48034 10.7071 6.29281C10.5196 6.10527 10.2652 5.99992 10 5.99992ZM6 8.99987C5.73478 8.99987 5.48043 9.10523 5.29289 9.29276C5.10536 9.4803 5 9.73465 5 9.99986V10.9998C5 11.2651 5.10536 11.5194 5.29289 11.7069C5.48043 11.8945 5.73478 11.9998 6 11.9998C6.26522 11.9998 6.51957 11.8945 6.70711 11.7069C6.89464 11.5194 7 11.2651 7 10.9998V9.99986C7 9.73465 6.89464 9.4803 6.70711 9.29276C6.51957 9.10523 6.26522 8.99987 6 8.99987ZM17 0H3C2.20435 0 1.44129 0.316066 0.87868 0.878667C0.316071 1.44127 0 2.20432 0 2.99996V12.9998C0 13.7955 0.316071 14.5585 0.87868 15.1211C1.44129 15.6837 2.20435 15.9998 3 15.9998H14.59L18.29 19.7097C18.3834 19.8024 18.4943 19.8757 18.6161 19.9255C18.7379 19.9753 18.8684 20.0005 19 19.9997C19.1312 20.0031 19.2613 19.9757 19.38 19.9197C19.5626 19.8447 19.7189 19.7173 19.8293 19.5536C19.9396 19.3899 19.999 19.1972 20 18.9997V2.99996C20 2.20432 19.6839 1.44127 19.1213 0.878667C18.5587 0.316066 17.7956 0 17 0ZM18 16.5898L15.71 14.2898C15.6166 14.1971 15.5057 14.1238 15.3839 14.074C15.2621 14.0243 15.1316 13.999 15 13.9998H3C2.73478 13.9998 2.48043 13.8944 2.29289 13.7069C2.10536 13.5194 2 13.265 2 12.9998V2.99996C2 2.73475 2.10536 2.4804 2.29289 2.29286C2.48043 2.10533 2.73478 1.99997 3 1.99997H17C17.2652 1.99997 17.5196 2.10533 17.7071 2.29286C17.8946 2.4804 18 2.73475 18 2.99996V16.5898ZM14 3.99994C13.7348 3.99994 13.4804 4.1053 13.2929 4.29283C13.1054 4.48037 13 4.73472 13 4.99993V10.9998C13 11.2651 13.1054 11.5194 13.2929 11.7069C13.4804 11.8945 13.7348 11.9998 14 11.9998C14.2652 11.9998 14.5196 11.8945 14.7071 11.7069C14.8946 11.5194 15 11.2651 15 10.9998V4.99993C15 4.73472 14.8946 4.48037 14.7071 4.29283C14.5196 4.1053 14.2652 3.99994 14 3.99994Z" fill="white"/>
</svg>
