<svg width="17" height="21" viewBox="0 0 17 21" fill="none" xmlns="http://www.w3.org/2000/svg">
<path d="M11.05 0.500023L11.0529 0.500006C11.0989 0.49974 11.1446 0.508568 11.1872 0.525986C11.2296 0.543303 11.2682 0.568774 11.3008 0.600952C11.301 0.601136 11.3012 0.601321 11.3014 0.601505L16.3985 5.69862C16.3987 5.69879 16.3988 5.69896 16.399 5.69914C16.4312 5.73173 16.4567 5.77033 16.474 5.81275C16.4914 5.85539 16.5003 5.90105 16.5 5.94712V5.95001V19.55C16.5 19.6428 16.4631 19.7318 16.3975 19.7975L16.751 20.151L16.3975 19.7975C16.3318 19.8631 16.2428 19.9 16.15 19.9H0.849999C0.757172 19.9 0.668149 19.8631 0.602514 19.7975C0.536875 19.7318 0.5 19.6428 0.5 19.55V0.850013C0.5 0.757188 0.536875 0.668165 0.602513 0.602527C0.66815 0.536889 0.757174 0.500014 0.849999 0.500014L11.05 0.500023Z" stroke="white"/>
<path d="M11.55 0.850122L16.1499 5.45001H11.9C11.8072 5.45001 11.7181 5.41313 11.6525 5.3475C11.5869 5.28186 11.55 5.19284 11.55 5.10001V0.850122Z" stroke="white"/>
<path d="M7.65007 15.3C7.48296 15.3019 7.31946 15.2514 7.18257 15.1555L4.63257 13.4555C4.46764 13.3227 4.35824 13.133 4.32581 12.9237C4.29338 12.7144 4.34024 12.5006 4.45723 12.324C4.57422 12.1475 4.7529 12.021 4.95828 11.9693C5.16366 11.9176 5.38094 11.9444 5.56757 12.0445L7.48857 13.3195L11.2456 8.80603C11.3898 8.63244 11.5972 8.52328 11.8219 8.50256C12.0467 8.48184 12.2705 8.55125 12.4441 8.69553C12.6177 8.8398 12.7268 9.04713 12.7475 9.27189C12.7683 9.49665 12.6988 9.72044 12.5546 9.89403L8.30457 14.994C8.22465 15.09 8.12457 15.1671 8.01145 15.22C7.89833 15.2729 7.77495 15.3002 7.65007 15.3Z" fill="white"/>
</svg>
