<svg width="20" height="20" viewBox="0 0 20 20" fill="none" xmlns="http://www.w3.org/2000/svg">
<path fill-rule="evenodd" clip-rule="evenodd" d="M19.2308 0C19.6554 0 20 0.344615 20 0.769231V8.42231C20 8.84692 19.6554 9.19154 19.2308 9.19154H11.5777C11.1531 9.19154 10.8085 8.84692 10.8085 8.42231V0.769231C10.8085 0.344615 11.1531 0 11.5777 0H19.2308ZM9.20316 11.5777C9.20316 11.1531 8.85854 10.8085 8.43393 10.8085H0.780852C0.355467 10.8085 0.0116211 11.1531 0.0116211 11.5777V19.2308C0.0116211 19.6554 0.355467 20 0.780852 20H8.43393C8.85854 20 9.20316 19.6554 9.20316 19.2308V11.5777ZM20 11.5777C20 11.1531 19.6554 10.8085 19.2308 10.8085H11.5777C11.1531 10.8085 10.8085 11.1531 10.8085 11.5777V19.2308C10.8085 19.6554 11.1531 20 11.5777 20H19.2308C19.6554 20 20 19.6554 20 19.2308V11.5777ZM5.36532 5.36537H8.42231C8.84692 5.36537 9.19154 5.01998 9.19154 4.59614C9.19154 4.17152 8.84692 3.8269 8.42231 3.8269H5.36532V0.769231C5.36532 0.344615 5.01993 0 4.59609 0C4.17147 0 3.82686 0.344615 3.82686 0.769231V3.8269H0.769231C0.344615 3.8269 0 4.17152 0 4.59614C0 5.01998 0.344615 5.36537 0.769231 5.36537H3.82686V8.42231C3.82686 8.84692 4.17147 9.19154 4.59609 9.19154C5.01993 9.19154 5.36532 8.84692 5.36532 8.42231V5.36537Z" fill="white"/>
</svg>
