<svg width="189" height="40" viewBox="0 0 189 40" fill="none" xmlns="http://www.w3.org/2000/svg">
<path d="M56.304 26.126C56.064 26.126 55.878 26.06 55.746 25.928C55.626 25.784 55.566 25.592 55.566 25.352V14.066C55.566 13.814 55.632 13.628 55.764 13.508C55.896 13.376 56.082 13.31 56.322 13.31H60.588C61.944 13.31 62.988 13.646 63.72 14.318C64.452 14.978 64.818 15.914 64.818 17.126C64.818 18.326 64.452 19.262 63.72 19.934C62.988 20.606 61.944 20.942 60.588 20.942H57.042V25.352C57.042 25.592 56.982 25.784 56.862 25.928C56.742 26.06 56.556 26.126 56.304 26.126ZM57.042 19.7H60.408C61.38 19.7 62.112 19.484 62.604 19.052C63.108 18.608 63.36 17.966 63.36 17.126C63.36 16.274 63.108 15.632 62.604 15.2C62.112 14.756 61.38 14.534 60.408 14.534H57.042V19.7ZM70.3139 26.162C69.3899 26.162 68.5919 25.982 67.9199 25.622C67.2599 25.25 66.7439 24.728 66.3719 24.056C66.0119 23.384 65.8319 22.58 65.8319 21.644C65.8319 20.732 66.0119 19.94 66.3719 19.268C66.7319 18.584 67.2239 18.05 67.8479 17.666C68.4839 17.282 69.2159 17.09 70.0439 17.09C70.6319 17.09 71.1599 17.192 71.6279 17.396C72.0959 17.588 72.4919 17.87 72.8159 18.242C73.1519 18.614 73.4039 19.064 73.5719 19.592C73.7519 20.12 73.8419 20.714 73.8419 21.374C73.8419 21.566 73.7879 21.71 73.6799 21.806C73.5719 21.89 73.4159 21.932 73.2119 21.932H66.9479V20.978H72.8699L72.5819 21.212C72.5819 20.564 72.4859 20.018 72.2939 19.574C72.1019 19.118 71.8199 18.77 71.4479 18.53C71.0879 18.29 70.6319 18.17 70.0799 18.17C69.4679 18.17 68.9459 18.314 68.5139 18.602C68.0939 18.878 67.7759 19.268 67.5599 19.772C67.3439 20.264 67.2359 20.84 67.2359 21.5V21.608C67.2359 22.712 67.4999 23.552 68.0279 24.128C68.5679 24.704 69.3299 24.992 70.3139 24.992C70.7219 24.992 71.1239 24.938 71.5199 24.83C71.9279 24.722 72.3239 24.542 72.7079 24.29C72.8759 24.182 73.0259 24.134 73.1579 24.146C73.3019 24.146 73.4159 24.188 73.4999 24.272C73.5839 24.344 73.6379 24.44 73.6619 24.56C73.6979 24.668 73.6859 24.788 73.6259 24.92C73.5779 25.052 73.4759 25.166 73.3199 25.262C72.9239 25.55 72.4559 25.772 71.9159 25.928C71.3759 26.084 70.8419 26.162 70.3139 26.162ZM76.672 26.126C76.432 26.126 76.252 26.06 76.132 25.928C76.012 25.796 75.952 25.61 75.952 25.37V17.864C75.952 17.624 76.012 17.444 76.132 17.324C76.252 17.192 76.426 17.126 76.654 17.126C76.882 17.126 77.056 17.192 77.176 17.324C77.308 17.444 77.374 17.624 77.374 17.864V19.412L77.176 19.196C77.428 18.5 77.836 17.978 78.4 17.63C78.976 17.27 79.636 17.09 80.38 17.09C81.076 17.09 81.652 17.216 82.108 17.468C82.576 17.72 82.924 18.104 83.152 18.62C83.38 19.124 83.494 19.766 83.494 20.546V25.37C83.494 25.61 83.428 25.796 83.296 25.928C83.176 26.06 83.002 26.126 82.774 26.126C82.534 26.126 82.348 26.06 82.216 25.928C82.096 25.796 82.036 25.61 82.036 25.37V20.636C82.036 19.82 81.874 19.226 81.55 18.854C81.238 18.47 80.734 18.278 80.038 18.278C79.234 18.278 78.592 18.53 78.112 19.034C77.644 19.526 77.41 20.186 77.41 21.014V25.37C77.41 25.874 77.164 26.126 76.672 26.126ZM89.5125 26.162C88.7325 26.162 88.0485 25.976 87.4605 25.604C86.8845 25.232 86.4345 24.71 86.1105 24.038C85.7985 23.354 85.6425 22.55 85.6425 21.626C85.6425 20.69 85.7985 19.886 86.1105 19.214C86.4345 18.53 86.8845 18.008 87.4605 17.648C88.0485 17.276 88.7325 17.09 89.5125 17.09C90.3045 17.09 90.9825 17.288 91.5465 17.684C92.1105 18.08 92.4885 18.614 92.6805 19.286H92.4825V13.922C92.4825 13.682 92.5425 13.502 92.6625 13.382C92.7945 13.25 92.9805 13.184 93.2205 13.184C93.4485 13.184 93.6225 13.25 93.7425 13.382C93.8745 13.502 93.9405 13.682 93.9405 13.922V25.37C93.9405 25.61 93.8805 25.796 93.7605 25.928C93.6405 26.06 93.4605 26.126 93.2205 26.126C92.9925 26.126 92.8125 26.06 92.6805 25.928C92.5605 25.796 92.5005 25.61 92.5005 25.37V23.66L92.6985 23.912C92.5065 24.596 92.1225 25.142 91.5465 25.55C90.9825 25.958 90.3045 26.162 89.5125 26.162ZM89.8185 24.992C90.3585 24.992 90.8325 24.86 91.2405 24.596C91.6485 24.332 91.9605 23.948 92.1765 23.444C92.4045 22.94 92.5185 22.334 92.5185 21.626C92.5185 20.534 92.2725 19.7 91.7805 19.124C91.3005 18.548 90.6465 18.26 89.8185 18.26C89.2665 18.26 88.7865 18.392 88.3785 18.656C87.9825 18.908 87.6705 19.286 87.4425 19.79C87.2265 20.282 87.1185 20.894 87.1185 21.626C87.1185 22.706 87.3645 23.54 87.8565 24.128C88.3485 24.704 89.0025 24.992 89.8185 24.992ZM97.3966 26.09C97.1566 26.09 96.9766 26.024 96.8566 25.892C96.7366 25.748 96.6766 25.55 96.6766 25.298V17.936C96.6766 17.684 96.7366 17.492 96.8566 17.36C96.9766 17.228 97.1566 17.162 97.3966 17.162C97.6246 17.162 97.8046 17.228 97.9366 17.36C98.0686 17.492 98.1346 17.684 98.1346 17.936V25.298C98.1346 25.55 98.0686 25.748 97.9366 25.892C97.8166 26.024 97.6366 26.09 97.3966 26.09ZM97.3966 15.146C97.0966 15.146 96.8626 15.068 96.6946 14.912C96.5266 14.744 96.4426 14.522 96.4426 14.246C96.4426 13.958 96.5266 13.742 96.6946 13.598C96.8626 13.442 97.0966 13.364 97.3966 13.364C97.7086 13.364 97.9426 13.442 98.0986 13.598C98.2666 13.742 98.3506 13.958 98.3506 14.246C98.3506 14.522 98.2666 14.744 98.0986 14.912C97.9426 15.068 97.7086 15.146 97.3966 15.146ZM101.58 26.126C101.34 26.126 101.16 26.06 101.04 25.928C100.92 25.796 100.86 25.61 100.86 25.37V17.864C100.86 17.624 100.92 17.444 101.04 17.324C101.16 17.192 101.334 17.126 101.562 17.126C101.79 17.126 101.964 17.192 102.084 17.324C102.216 17.444 102.282 17.624 102.282 17.864V19.412L102.084 19.196C102.336 18.5 102.744 17.978 103.308 17.63C103.884 17.27 104.544 17.09 105.288 17.09C105.984 17.09 106.56 17.216 107.016 17.468C107.484 17.72 107.832 18.104 108.06 18.62C108.288 19.124 108.402 19.766 108.402 20.546V25.37C108.402 25.61 108.336 25.796 108.204 25.928C108.084 26.06 107.91 26.126 107.682 26.126C107.442 26.126 107.256 26.06 107.124 25.928C107.004 25.796 106.944 25.61 106.944 25.37V20.636C106.944 19.82 106.782 19.226 106.458 18.854C106.146 18.47 105.642 18.278 104.946 18.278C104.142 18.278 103.5 18.53 103.02 19.034C102.552 19.526 102.318 20.186 102.318 21.014V25.37C102.318 25.874 102.072 26.126 101.58 26.126ZM114.961 29.402C114.325 29.402 113.701 29.324 113.089 29.168C112.489 29.024 111.943 28.79 111.451 28.466C111.307 28.382 111.211 28.28 111.163 28.16C111.127 28.04 111.121 27.92 111.145 27.8C111.169 27.692 111.223 27.59 111.307 27.494C111.391 27.41 111.487 27.356 111.595 27.332C111.715 27.308 111.835 27.326 111.955 27.386C112.483 27.71 112.987 27.932 113.467 28.052C113.947 28.172 114.421 28.232 114.889 28.232C115.741 28.232 116.383 28.004 116.815 27.548C117.259 27.092 117.481 26.432 117.481 25.568V23.534H117.661C117.481 24.23 117.097 24.782 116.509 25.19C115.933 25.598 115.255 25.802 114.475 25.802C113.671 25.802 112.975 25.622 112.387 25.262C111.799 24.89 111.343 24.374 111.019 23.714C110.707 23.054 110.551 22.292 110.551 21.428C110.551 20.78 110.641 20.192 110.821 19.664C111.001 19.124 111.259 18.668 111.595 18.296C111.943 17.912 112.357 17.618 112.837 17.414C113.329 17.198 113.875 17.09 114.475 17.09C115.267 17.09 115.951 17.294 116.527 17.702C117.103 18.098 117.475 18.638 117.643 19.322L117.463 19.538V17.864C117.463 17.624 117.523 17.444 117.643 17.324C117.775 17.192 117.955 17.126 118.183 17.126C118.423 17.126 118.603 17.192 118.723 17.324C118.843 17.444 118.903 17.624 118.903 17.864V25.37C118.903 26.702 118.567 27.704 117.895 28.376C117.235 29.06 116.257 29.402 114.961 29.402ZM114.745 24.614C115.309 24.614 115.795 24.488 116.203 24.236C116.611 23.972 116.923 23.6 117.139 23.12C117.367 22.64 117.481 22.076 117.481 21.428C117.481 20.456 117.235 19.688 116.743 19.124C116.251 18.548 115.585 18.26 114.745 18.26C114.193 18.26 113.713 18.392 113.305 18.656C112.897 18.908 112.579 19.274 112.351 19.754C112.135 20.222 112.027 20.78 112.027 21.428C112.027 22.4 112.273 23.174 112.765 23.75C113.257 24.326 113.917 24.614 114.745 24.614ZM127.214 26.126C126.974 26.126 126.788 26.06 126.656 25.928C126.536 25.784 126.476 25.592 126.476 25.352V14.066C126.476 13.814 126.542 13.628 126.674 13.508C126.806 13.376 126.992 13.31 127.232 13.31H131.498C132.854 13.31 133.898 13.628 134.63 14.264C135.362 14.9 135.728 15.806 135.728 16.982C135.728 17.726 135.56 18.374 135.224 18.926C134.9 19.466 134.42 19.88 133.784 20.168C133.148 20.444 132.386 20.582 131.498 20.582L131.678 20.348H132.038C132.506 20.348 132.914 20.468 133.262 20.708C133.61 20.948 133.928 21.332 134.216 21.86L135.944 25.082C136.04 25.25 136.082 25.418 136.07 25.586C136.07 25.742 136.016 25.874 135.908 25.982C135.8 26.078 135.644 26.126 135.44 26.126C135.236 26.126 135.068 26.078 134.936 25.982C134.804 25.886 134.69 25.748 134.594 25.568L132.632 21.932C132.356 21.416 132.038 21.074 131.678 20.906C131.318 20.726 130.844 20.636 130.256 20.636H127.952V25.352C127.952 25.592 127.892 25.784 127.772 25.928C127.652 26.06 127.466 26.126 127.214 26.126ZM127.952 19.466H131.282C132.266 19.466 133.01 19.262 133.514 18.854C134.018 18.434 134.27 17.81 134.27 16.982C134.27 16.178 134.018 15.572 133.514 15.164C133.01 14.744 132.266 14.534 131.282 14.534H127.952V19.466ZM142.068 26.162C141.144 26.162 140.346 25.982 139.674 25.622C139.014 25.25 138.498 24.728 138.126 24.056C137.766 23.384 137.586 22.58 137.586 21.644C137.586 20.732 137.766 19.94 138.126 19.268C138.486 18.584 138.978 18.05 139.602 17.666C140.238 17.282 140.97 17.09 141.798 17.09C142.386 17.09 142.914 17.192 143.382 17.396C143.85 17.588 144.246 17.87 144.57 18.242C144.906 18.614 145.158 19.064 145.326 19.592C145.506 20.12 145.596 20.714 145.596 21.374C145.596 21.566 145.542 21.71 145.434 21.806C145.326 21.89 145.17 21.932 144.966 21.932H138.702V20.978H144.624L144.336 21.212C144.336 20.564 144.24 20.018 144.048 19.574C143.856 19.118 143.574 18.77 143.202 18.53C142.842 18.29 142.386 18.17 141.834 18.17C141.222 18.17 140.7 18.314 140.268 18.602C139.848 18.878 139.53 19.268 139.314 19.772C139.098 20.264 138.99 20.84 138.99 21.5V21.608C138.99 22.712 139.254 23.552 139.782 24.128C140.322 24.704 141.084 24.992 142.068 24.992C142.476 24.992 142.878 24.938 143.274 24.83C143.682 24.722 144.078 24.542 144.462 24.29C144.63 24.182 144.78 24.134 144.912 24.146C145.056 24.146 145.17 24.188 145.254 24.272C145.338 24.344 145.392 24.44 145.416 24.56C145.452 24.668 145.44 24.788 145.38 24.92C145.332 25.052 145.23 25.166 145.074 25.262C144.678 25.55 144.21 25.772 143.67 25.928C143.13 26.084 142.596 26.162 142.068 26.162ZM148.426 29.366C148.186 29.366 148.006 29.3 147.886 29.168C147.766 29.048 147.706 28.868 147.706 28.628V17.864C147.706 17.624 147.766 17.444 147.886 17.324C148.006 17.192 148.18 17.126 148.408 17.126C148.648 17.126 148.828 17.192 148.948 17.324C149.08 17.444 149.146 17.624 149.146 17.864V19.574L148.948 19.322C149.14 18.638 149.518 18.098 150.082 17.702C150.658 17.294 151.342 17.09 152.134 17.09C152.914 17.09 153.592 17.276 154.168 17.648C154.756 18.008 155.206 18.53 155.518 19.214C155.842 19.886 156.004 20.69 156.004 21.626C156.004 22.55 155.842 23.354 155.518 24.038C155.206 24.71 154.762 25.232 154.186 25.604C153.61 25.976 152.926 26.162 152.134 26.162C151.342 26.162 150.664 25.964 150.1 25.568C149.536 25.16 149.152 24.62 148.948 23.948H149.164V28.628C149.164 28.868 149.098 29.048 148.966 29.168C148.834 29.3 148.654 29.366 148.426 29.366ZM151.828 24.992C152.38 24.992 152.854 24.86 153.25 24.596C153.658 24.332 153.97 23.948 154.186 23.444C154.414 22.94 154.528 22.334 154.528 21.626C154.528 20.534 154.282 19.7 153.79 19.124C153.31 18.548 152.656 18.26 151.828 18.26C151.288 18.26 150.814 18.392 150.406 18.656C149.998 18.908 149.68 19.286 149.452 19.79C149.236 20.282 149.128 20.894 149.128 21.626C149.128 22.706 149.374 23.54 149.866 24.128C150.358 24.704 151.012 24.992 151.828 24.992ZM161.836 26.162C160.984 26.162 160.246 25.976 159.622 25.604C158.998 25.232 158.512 24.71 158.164 24.038C157.828 23.354 157.66 22.55 157.66 21.626C157.66 20.93 157.756 20.306 157.948 19.754C158.14 19.19 158.422 18.71 158.794 18.314C159.166 17.918 159.604 17.618 160.108 17.414C160.624 17.198 161.2 17.09 161.836 17.09C162.688 17.09 163.426 17.276 164.05 17.648C164.674 18.02 165.154 18.548 165.49 19.232C165.838 19.904 166.012 20.702 166.012 21.626C166.012 22.322 165.916 22.946 165.724 23.498C165.532 24.05 165.25 24.53 164.878 24.938C164.506 25.334 164.062 25.64 163.546 25.856C163.042 26.06 162.472 26.162 161.836 26.162ZM161.836 24.992C162.376 24.992 162.85 24.86 163.258 24.596C163.666 24.332 163.978 23.948 164.194 23.444C164.422 22.94 164.536 22.334 164.536 21.626C164.536 20.534 164.29 19.7 163.798 19.124C163.318 18.548 162.664 18.26 161.836 18.26C161.284 18.26 160.804 18.392 160.396 18.656C160 18.908 159.688 19.286 159.46 19.79C159.244 20.282 159.136 20.894 159.136 21.626C159.136 22.706 159.382 23.54 159.874 24.128C160.366 24.704 161.02 24.992 161.836 24.992ZM168.94 26.126C168.7 26.126 168.514 26.06 168.382 25.928C168.262 25.796 168.202 25.61 168.202 25.37V17.864C168.202 17.624 168.262 17.444 168.382 17.324C168.502 17.192 168.676 17.126 168.904 17.126C169.132 17.126 169.306 17.192 169.426 17.324C169.558 17.444 169.624 17.624 169.624 17.864V19.322H169.444C169.636 18.614 170.002 18.068 170.542 17.684C171.082 17.3 171.748 17.096 172.54 17.072C172.72 17.06 172.864 17.102 172.972 17.198C173.08 17.282 173.14 17.432 173.152 17.648C173.164 17.852 173.116 18.014 173.008 18.134C172.9 18.254 172.732 18.326 172.504 18.35L172.216 18.386C171.4 18.458 170.77 18.722 170.326 19.178C169.894 19.622 169.678 20.234 169.678 21.014V25.37C169.678 25.61 169.612 25.796 169.48 25.928C169.36 26.06 169.18 26.126 168.94 26.126ZM178.638 26.162C177.954 26.162 177.378 26.042 176.91 25.802C176.454 25.55 176.112 25.19 175.884 24.722C175.656 24.242 175.542 23.66 175.542 22.976V18.386H174.336C174.132 18.386 173.976 18.338 173.868 18.242C173.76 18.134 173.706 17.99 173.706 17.81C173.706 17.63 173.76 17.492 173.868 17.396C173.976 17.3 174.132 17.252 174.336 17.252H175.542V15.182C175.542 14.942 175.608 14.762 175.74 14.642C175.872 14.51 176.052 14.444 176.28 14.444C176.508 14.444 176.682 14.51 176.802 14.642C176.934 14.762 177 14.942 177 15.182V17.252H179.268C179.472 17.252 179.628 17.3 179.736 17.396C179.844 17.492 179.898 17.63 179.898 17.81C179.898 17.99 179.844 18.134 179.736 18.242C179.628 18.338 179.472 18.386 179.268 18.386H177V22.832C177 23.516 177.144 24.038 177.432 24.398C177.72 24.746 178.188 24.92 178.836 24.92C179.064 24.92 179.256 24.896 179.412 24.848C179.58 24.8 179.718 24.776 179.826 24.776C179.934 24.764 180.024 24.8 180.096 24.884C180.168 24.968 180.204 25.112 180.204 25.316C180.204 25.46 180.174 25.592 180.114 25.712C180.066 25.832 179.976 25.916 179.844 25.964C179.7 26.012 179.508 26.054 179.268 26.09C179.04 26.138 178.83 26.162 178.638 26.162ZM184.373 26.162C183.833 26.162 183.287 26.096 182.735 25.964C182.195 25.832 181.691 25.604 181.223 25.28C181.103 25.196 181.019 25.1 180.971 24.992C180.923 24.872 180.905 24.758 180.917 24.65C180.941 24.53 180.989 24.428 181.061 24.344C181.145 24.26 181.241 24.212 181.349 24.2C181.469 24.176 181.601 24.2 181.745 24.272C182.213 24.56 182.663 24.764 183.095 24.884C183.539 24.992 183.977 25.046 184.409 25.046C185.093 25.046 185.609 24.92 185.957 24.668C186.305 24.416 186.479 24.074 186.479 23.642C186.479 23.306 186.365 23.042 186.137 22.85C185.909 22.646 185.549 22.49 185.057 22.382L183.419 22.022C182.663 21.866 182.099 21.596 181.727 21.212C181.367 20.828 181.187 20.33 181.187 19.718C181.187 19.178 181.325 18.716 181.601 18.332C181.889 17.936 182.291 17.63 182.807 17.414C183.323 17.198 183.923 17.09 184.607 17.09C185.135 17.09 185.633 17.162 186.101 17.306C186.581 17.438 187.013 17.654 187.397 17.954C187.517 18.038 187.595 18.14 187.631 18.26C187.679 18.368 187.685 18.482 187.649 18.602C187.625 18.71 187.571 18.806 187.487 18.89C187.403 18.962 187.301 19.004 187.181 19.016C187.061 19.028 186.935 18.992 186.803 18.908C186.443 18.668 186.077 18.494 185.705 18.386C185.333 18.266 184.967 18.206 184.607 18.206C183.935 18.206 183.425 18.338 183.077 18.602C182.729 18.866 182.555 19.214 182.555 19.646C182.555 19.982 182.663 20.258 182.879 20.474C183.095 20.69 183.431 20.846 183.887 20.942L185.525 21.284C186.305 21.452 186.887 21.722 187.271 22.094C187.667 22.454 187.865 22.946 187.865 23.57C187.865 24.362 187.547 24.992 186.911 25.46C186.275 25.928 185.429 26.162 184.373 26.162Z" fill="white"/>
<circle cx="20" cy="20" r="20" fill="#374BAE"/>
<path fill-rule="evenodd" clip-rule="evenodd" d="M17.3049 22.2944C17.3049 22.5551 17.1 22.7599 16.8393 22.7599C16.5786 22.7599 16.3738 22.5458 16.3738 22.2944V13.5047L21.048 11V25.9443C21.048 26.2051 20.8431 26.4099 20.5824 26.4099C20.3217 26.4099 20.1168 26.2051 20.1168 25.9443V12.555L17.3049 14.0634V22.2944ZM11.6996 25.8233C11.6996 26.084 11.4947 26.2889 11.234 26.2889C10.9733 26.2889 10.7685 26.0747 10.7778 25.8233V20.3949L15.4426 17.8902V23.4397C15.4426 23.7004 15.2378 23.9052 14.9771 23.9052C14.7164 23.9052 14.5115 23.7004 14.5115 23.4397V19.4452L11.6996 20.9536V25.8233ZM22.4446 25.8047C22.7053 25.8047 22.9102 25.5998 22.9102 25.3391V16.4656L25.7221 14.9572V22.9927C25.7221 23.2534 25.927 23.4583 26.1877 23.4583C26.4484 23.4583 26.6532 23.2534 26.6532 22.9927V13.4023L21.9883 15.907V25.3391C21.979 25.5998 22.1932 25.8047 22.4446 25.8047ZM31.3739 21.894C31.5415 21.894 31.6905 21.9871 31.7743 22.1268C31.8581 22.2758 31.8581 22.4527 31.7836 22.5737L30.1728 25.3577C30.089 25.4974 29.94 25.5905 29.7724 25.5905C29.6048 25.5905 29.4558 25.4974 29.372 25.3577L28.8041 24.3708L28.6178 24.4825L26.2621 25.9257C26.0713 26.0468 25.878 26.1655 25.6848 26.2842C25.4916 26.4029 25.2984 26.5216 25.1075 26.6427C24.9725 26.7311 24.8352 26.8173 24.6979 26.9034C24.5605 26.9895 24.4232 27.0756 24.2882 27.1641C23.5619 27.6297 22.9287 28.0393 22.3421 28.4397C22.0163 28.6539 21.6997 28.8773 21.3831 29.1008L20.8151 29.5105L16.6065 25.4043L9.71627 29.7898C9.63247 29.8364 9.54867 29.8643 9.46487 29.8643C9.31589 29.8643 9.16692 29.7898 9.0738 29.6502C8.93414 29.436 8.99932 29.1474 9.21347 29.0077L16.7369 24.2218L20.9082 28.3001C21.0619 28.1976 21.2132 28.0929 21.3645 27.9881C21.5158 27.8834 21.6671 27.7786 21.8207 27.6762C22.4166 27.2665 23.0591 26.8475 23.7854 26.382C23.9524 26.2726 24.1229 26.1667 24.2948 26.06C24.4009 25.9942 24.5075 25.9281 24.6141 25.8605C24.8096 25.7395 25.0027 25.6208 25.1959 25.5021C25.3891 25.3834 25.5824 25.2647 25.778 25.1436L28.3385 23.5886L27.7612 22.5923C27.6774 22.4434 27.6774 22.2665 27.7612 22.1268C27.845 21.9871 27.994 21.894 28.1616 21.894H31.3739ZM28.9624 22.8251L29.7631 24.2125L30.5639 22.8251H28.9624Z" fill="white"/>
</svg>
