<svg width="20" height="20" viewBox="0 0 20 20" fill="none" xmlns="http://www.w3.org/2000/svg">
<path fill-rule="evenodd" clip-rule="evenodd" d="M8.57143 20H11.4286L12.2269 17.563C12.7731 17.437 13.2773 17.1849 13.7815 16.9328L16.0924 18.1092L18.1092 16.0924L16.9328 13.7815C17.1849 13.2773 17.395 12.7731 17.563 12.2269L20 11.4286V8.57144L17.563 7.77311C17.437 7.2269 17.1849 6.72271 16.9328 6.21851L16.9328 6.21849L18.1092 3.90757L16.0924 1.89076L13.7815 3.06723C13.2773 2.81513 12.7731 2.60505 12.2269 2.43698L11.4286 0H8.57143L7.77311 2.43698C7.22689 2.56303 6.72269 2.81513 6.21849 3.06723L6.21849 3.06723L3.90756 1.89076L1.89076 3.90757L3.06723 6.21849C2.81513 6.7227 2.60504 7.22689 2.43698 7.77311L0 8.57144V11.4286L2.43698 12.2269C2.56303 12.7731 2.81513 13.2773 3.06723 13.7815L1.89076 16.0924L3.90756 18.1092L6.21849 16.9328C6.72269 17.1849 7.22689 17.395 7.77311 17.563L8.57143 20ZM10.7143 19.0336H9.28572L8.52941 16.7647L8.27731 16.6807C7.64706 16.5126 7.01681 16.2605 6.47059 15.9244L6.21849 15.7983L4.07563 16.8908L3.06723 15.8824L4.15967 13.7395L4.03362 13.4874C3.69748 12.9412 3.44538 12.3109 3.27731 11.6807L3.19328 11.4286L0.924368 10.6723V9.2437L3.19328 8.4874L3.27731 8.2353C3.44538 7.60504 3.69748 6.9748 4.03362 6.42858L4.15967 6.17648L3.06723 4.03362L4.07563 3.02521L6.21849 4.11765L6.47059 3.9916C7.05883 3.65546 7.64706 3.40337 8.27731 3.2353L8.52941 3.15126L9.28572 0.882355H10.7143L11.4706 3.15126L11.7227 3.2353C12.3529 3.40337 12.9832 3.65546 13.5294 3.9916L13.7815 4.11765L15.9244 3.02521L16.9328 4.03362L15.8403 6.17648L15.9664 6.42858C16.3025 6.9748 16.5546 7.60504 16.7227 8.2353L16.8067 8.4874L19.0756 9.2437V10.6723L16.8067 11.4286L16.7227 11.6807C16.5546 12.3109 16.3025 12.9412 15.9664 13.4874L15.8403 13.7395L16.9328 15.8824L15.9244 16.8908L13.7815 15.7983L13.5294 15.9244C12.9412 16.2605 12.3529 16.5126 11.7227 16.6807L11.4706 16.7647L10.7143 19.0336ZM5.25213 9.958C5.25213 12.563 7.39499 14.7059 10 14.7059C12.6051 14.7059 14.7479 12.563 14.7479 9.958C14.7479 7.35296 12.6051 5.21011 10 5.21011C7.39499 5.21011 5.25213 7.35296 5.25213 9.958ZM6.26054 9.958C6.26054 7.89918 7.9412 6.21851 10 6.21851C12.0589 6.21851 13.7395 7.89918 13.7395 9.958C13.7395 12.0168 12.0589 13.6975 10 13.6975C7.9412 13.6975 6.26054 12.0168 6.26054 9.958Z" fill="white"/>
</svg>
