<svg width="22" height="22" viewBox="0 0 22 22" fill="none" xmlns="http://www.w3.org/2000/svg">
<path d="M21.3333 9.78144V15.9748C21.3333 16.4473 21.1381 16.9004 20.7905 17.2345C20.4429 17.5685 19.9714 17.7562 19.4799 17.7562H16.5673L16.5865 20.6667L11.7194 17.7609H7.36252C6.3395 17.7609 5.33334 17.0668 5.33334 16.0743L11.3511 12.604H17.1281C17.418 12.6034 17.7049 12.5479 17.9725 12.4407C18.24 12.3335 18.483 12.1767 18.6875 11.9793C18.892 11.7819 19.0541 11.5477 19.1644 11.29C19.2748 11.0324 19.3313 10.7564 19.3306 10.4778V8.00001H19.4751C19.7189 7.9994 19.9604 8.04503 20.1858 8.13428C20.4113 8.22353 20.6161 8.35465 20.7888 8.52014C20.9614 8.68562 21.0983 8.88221 21.1918 9.09864C21.2852 9.31508 21.3333 9.5471 21.3333 9.78144Z" fill="#374BAE"/>
<path fill-rule="evenodd" clip-rule="evenodd" d="M20.01 8.87675V10.516C20.0107 10.8868 19.9363 11.2541 19.7909 11.597C19.6454 11.9401 19.4317 12.2521 19.162 12.5151C18.8923 12.778 18.5718 12.9869 18.219 13.1296C17.8662 13.2724 17.4878 13.3463 17.1056 13.3471L17.104 13.3471H11.5624L6.18858 16.4772C6.36948 16.8331 6.81873 17.1295 7.40049 17.1295H11.9343L15.84 19.4846L15.8246 17.1248H19.4408C19.7389 17.1248 20.0248 17.0098 20.2357 16.8052C20.4465 16.6005 20.5649 16.3229 20.5649 16.0335V9.81778C20.5649 9.67423 20.5357 9.53209 20.4791 9.39951C20.4224 9.26692 20.3393 9.14649 20.2346 9.04512C20.1672 8.97986 20.0917 8.92333 20.01 8.87675ZM19.4351 7.33335C19.7714 7.33263 20.1046 7.39626 20.4155 7.52061C20.7268 7.64509 21.0097 7.82795 21.2481 8.05874C21.4864 8.28953 21.6755 8.5637 21.8046 8.86554C21.9336 9.16739 22 9.49098 22 9.81779V16.0335C22 16.6924 21.7304 17.3244 21.2504 17.7903C20.7705 18.2562 20.1195 18.5179 19.4408 18.5179H17.2688L17.2916 22L11.5249 18.5226H7.40049C6.13095 18.5226 4.66666 17.6399 4.66666 16.1334V15.739L11.1649 11.9539H17.1032C17.2967 11.9534 17.4883 11.916 17.6669 11.8437C17.8458 11.7713 18.0083 11.6654 18.145 11.5321C18.2817 11.3988 18.3901 11.2406 18.4638 11.0667C18.5376 10.8927 18.5754 10.7063 18.575 10.5182L18.5749 10.5167V7.33335H19.4351Z" fill="white"/>
<path fill-rule="evenodd" clip-rule="evenodd" d="M17.6747 1.52424C17.4972 1.45127 17.3069 1.41382 17.1148 1.41403L2.88594 1.41403C2.49789 1.41403 2.12574 1.56723 1.85135 1.83993C1.57696 2.11262 1.42281 2.48248 1.42281 2.86813V10.388C1.42332 10.7736 1.57768 11.1433 1.85205 11.4159C2.12649 11.6887 2.49859 11.8421 2.88671 11.8425H6.20583V14.8359L11.2258 11.8425H17.1141C17.5021 11.8425 17.8743 11.6893 18.1486 11.4166C18.423 11.1439 18.5772 10.7741 18.5772 10.3884V2.86736C18.5774 2.67644 18.5397 2.48737 18.4663 2.31095C18.3929 2.13453 18.2852 1.97423 18.1493 1.83924C18.0135 1.70424 17.8522 1.5972 17.6747 1.52424ZM17.1137 1.31631e-06C17.4927 -0.000359751 17.8682 0.0735641 18.2185 0.217545C18.5689 0.361576 18.8873 0.572882 19.1554 0.839365C19.4236 1.10585 19.6362 1.42228 19.7811 1.77053C19.926 2.11879 20.0004 2.49204 20 2.8689V10.3884C20 11.1491 19.6959 11.8786 19.1547 12.4165C18.6135 12.9544 17.8795 13.2565 17.1141 13.2565H11.6199L11.7888 13.1558L11.4228 12.5495V13.2565H11.6199L4.78302 17.3333V13.2565H2.88516C2.12023 13.2557 1.38686 12.9534 0.845965 12.4158C0.305073 11.8782 0.000833249 11.1494 3.95762e-07 10.3892L0 2.86813C0 2.10745 0.304053 1.37793 0.845272 0.840056C1.38649 0.302178 2.12054 1.31631e-06 2.88594 1.31631e-06H17.1137Z" fill="white"/>
</svg>
