<svg width="20" height="18" viewBox="0 0 20 18" fill="none" xmlns="http://www.w3.org/2000/svg">
<path fill-rule="evenodd" clip-rule="evenodd" d="M6.25 1.25C5.55964 1.25 5 1.80964 5 2.5C5 3.19036 5.55964 3.75 6.25 3.75C6.94036 3.75 7.5 3.19036 7.5 2.5C7.5 1.80964 6.94036 1.25 6.25 1.25ZM6.25 5C5.0851 5 4.10629 4.20327 3.82876 3.125H0.625C0.279822 3.125 0 2.84518 0 2.5C0 2.15482 0.279822 1.875 0.625 1.875H3.82876C4.10629 0.796733 5.0851 0 6.25 0C7.63071 0 8.75 1.11929 8.75 2.5C8.75 3.88071 7.63071 5 6.25 5ZM13.75 7.5C13.0596 7.5 12.5 8.05964 12.5 8.75C12.5 9.44036 13.0596 10 13.75 10C14.4404 10 15 9.44036 15 8.75C15 8.05964 14.4404 7.5 13.75 7.5ZM13.75 6.25C14.9149 6.25 15.8937 7.04673 16.1712 8.125H19.375C19.7202 8.125 20 8.40482 20 8.75C20 9.09518 19.7202 9.375 19.375 9.375H16.1712C15.8937 10.4533 14.9149 11.25 13.75 11.25C12.3693 11.25 11.25 10.1307 11.25 8.75C11.25 7.36929 12.3693 6.25 13.75 6.25ZM5 15C5 14.3096 5.55964 13.75 6.25 13.75C6.94036 13.75 7.5 14.3096 7.5 15C7.5 15.6904 6.94036 16.25 6.25 16.25C5.55964 16.25 5 15.6904 5 15ZM6.25 17.5C5.0851 17.5 4.10629 16.7033 3.82876 15.625H0.625C0.279822 15.625 0 15.3452 0 15C0 14.6548 0.279822 14.375 0.625 14.375H3.82876C4.10629 13.2967 5.0851 12.5 6.25 12.5C7.63071 12.5 8.75 13.6193 8.75 15C8.75 16.3807 7.63071 17.5 6.25 17.5ZM0.625 8.125C0.279822 8.125 0 8.40482 0 8.75C0 9.09518 0.279822 9.375 0.625 9.375H9.375C9.72018 9.375 10 9.09518 10 8.75C10 8.40482 9.72018 8.125 9.375 8.125H0.625ZM10.625 14.375C10.2798 14.375 10 14.6548 10 15C10 15.3452 10.2798 15.625 10.625 15.625H19.375C19.7202 15.625 20 15.3452 20 15C20 14.6548 19.7202 14.375 19.375 14.375H10.625ZM10.625 1.875C10.2798 1.875 10 2.15482 10 2.5C10 2.84518 10.2798 3.125 10.625 3.125H19.375C19.7202 3.125 20 2.84518 20 2.5C20 2.15482 19.7202 1.875 19.375 1.875H10.625Z" fill="white"/>
</svg>
