<svg width="29" height="33" viewBox="0 0 29 33" fill="none" xmlns="http://www.w3.org/2000/svg">
<path fill-rule="evenodd" clip-rule="evenodd" d="M9.34949 1.94348C10.7344 0.69909 12.6127 0 14.5712 0C16.5297 0 18.408 0.69909 19.7929 1.94348C21.1778 3.18787 21.9558 4.87562 21.9558 6.63545V13.2018C21.9558 13.8126 21.4048 14.3077 20.725 14.3077C20.0453 14.3077 19.4943 13.8126 19.4943 13.2018V6.63545C19.4943 5.46223 18.9756 4.33706 18.0523 3.50747C17.1291 2.67788 15.8769 2.21182 14.5712 2.21182C13.2655 2.21182 12.0133 2.67788 11.0901 3.50747C10.1668 4.33706 9.64812 5.46223 9.64812 6.63545V13.2018C9.64812 13.8126 9.09709 14.3077 8.41735 14.3077C7.73762 14.3077 7.18658 13.8126 7.18658 13.2018V6.63545C7.18658 4.87562 7.9646 3.18787 9.34949 1.94348Z" fill="#5867DD"/>
<path fill-rule="evenodd" clip-rule="evenodd" d="M5.84413 14.1862C4.467 14.1862 3.35062 15.165 3.35062 16.3725V28.3968C3.35062 29.6042 4.467 30.583 5.84413 30.583H23.2987C24.6758 30.583 25.7922 29.6042 25.7922 28.3968V16.3725C25.7922 15.165 24.6758 14.1862 23.2987 14.1862H5.84413ZM0.857117 16.3725C0.857117 13.9576 3.08988 12 5.84413 12H23.2987C26.0529 12 28.2857 13.9576 28.2857 16.3725V28.3968C28.2857 30.8116 26.0529 32.7692 23.2987 32.7692H5.84413C3.08988 32.7692 0.857117 30.8116 0.857117 28.3968V16.3725Z" fill="#5867DD"/>
</svg>
