<svg width="14" height="20" viewBox="0 0 14 20" fill="none" xmlns="http://www.w3.org/2000/svg">
<path fill-rule="evenodd" clip-rule="evenodd" d="M4.33469 1.1337C5.04156 0.407803 6.00028 0 6.99994 0C7.99961 0 8.95832 0.407803 9.66519 1.1337C10.3721 1.85959 10.7692 2.84411 10.7692 3.87068V7.70104C10.7692 8.05733 10.4879 8.34615 10.141 8.34615C9.79402 8.34615 9.51276 8.05733 9.51276 7.70104V3.87068C9.51276 3.1863 9.24802 2.52995 8.77678 2.04602C8.30553 1.5621 7.66639 1.29023 6.99994 1.29023C6.3335 1.29023 5.69436 1.5621 5.22311 2.04602C4.75187 2.52995 4.48712 3.1863 4.48712 3.87068V7.70104C4.48712 8.05733 4.20587 8.34615 3.85892 8.34615C3.51197 8.34615 3.23071 8.05733 3.23071 7.70104V3.87068C3.23071 2.84411 3.62783 1.85959 4.33469 1.1337Z" fill="#5867DD"/>
<path fill-rule="evenodd" clip-rule="evenodd" d="M2.54545 8.2753C1.84255 8.2753 1.27273 8.84628 1.27273 9.55061V16.5648C1.27273 17.2691 1.84255 17.8401 2.54545 17.8401H11.4545C12.1575 17.8401 12.7273 17.2691 12.7273 16.5648V9.55061C12.7273 8.84628 12.1575 8.2753 11.4545 8.2753H2.54545ZM0 9.55061C0 8.14195 1.13964 7 2.54545 7H11.4545C12.8604 7 14 8.14195 14 9.55061V16.5648C14 17.9734 12.8604 19.1154 11.4545 19.1154H2.54545C1.13964 19.1154 0 17.9734 0 16.5648V9.55061Z" fill="#5867DD"/>
</svg>
