<svg width="59" height="52" viewBox="0 0 59 52" fill="none" xmlns="http://www.w3.org/2000/svg">
<path fill-rule="evenodd" clip-rule="evenodd" d="M8.13644 41.4099C8.77111 42.0013 9.69528 42.1594 10.4888 41.8087C11.283 41.4649 11.7966 40.681 11.7966 39.8146C11.7994 34.4719 11.7994 26.5437 11.7994 26.5437C11.7994 24.9691 13.0763 23.697 14.6482 23.697C16.2201 23.697 17.497 24.9691 17.497 26.5437V48.4167C18.9059 49.2006 20.3155 49.8607 21.7258 50.3902V16.8689C21.7258 15.3011 23.002 14.0222 24.5739 14.0222C26.1465 14.0222 27.4227 15.3011 27.4227 16.8689V51.8273C28.8323 51.9992 30.2419 52.0473 31.6515 51.9511V32.519C31.6515 30.9444 32.9278 29.6655 34.4996 29.6655C36.0722 29.6655 37.3484 30.9444 37.3484 32.519V50.8234C38.7574 50.3489 40.167 49.7439 41.5773 48.9875V24.1233C41.5773 22.5555 42.8535 21.2765 44.426 21.2765C45.9979 21.2765 47.2742 22.5555 47.2742 24.1233V40.1928C47.2742 41.073 47.8043 41.8638 48.6185 42.2076C49.4326 42.5445 50.3705 42.3588 50.9949 41.7331C52.3041 40.406 53.6167 38.9551 54.9287 37.3599C59.6004 32.691 59.6004 25.1066 54.9287 20.4308L38.001 3.50168C33.3293 -1.16723 25.7442 -1.16723 21.0733 3.50168L4.14483 20.4308C-0.526142 25.1066 -0.526142 32.691 4.14483 37.3599C5.47537 38.8107 6.8059 40.1654 8.13644 41.4099Z" fill="#5867DD"/>
</svg>
